<mxfile host="app.diagrams.net" agent="Mozilla/5.0 (Windows NT 10.0; Win64; x64) AppleWebKit/537.36 (KHTML, like Gecko) Chrome/135.0.0.0 Safari/537.36 Edg/135.0.0.0" version="26.2.14">
  <diagram id="WI9T0HZ2pTsCkuznbFz-" name="Page-1">
    <mxGraphModel dx="1226" dy="725" grid="1" gridSize="10" guides="1" tooltips="1" connect="1" arrows="1" fold="1" page="1" pageScale="1" pageWidth="1169" pageHeight="827" background="none" math="0" shadow="0">
      <root>
        <mxCell id="0" />
        <mxCell id="1" parent="0" />
        <mxCell id="ofyRJqEsxBPMG2T8lIRP-81" value="" style="group" vertex="1" connectable="0" parent="1">
          <mxGeometry x="53" y="80" width="1064" height="625" as="geometry" />
        </mxCell>
        <mxCell id="ofyRJqEsxBPMG2T8lIRP-71" value="Dead Letter Queue&lt;div&gt;&lt;br&gt;&lt;/div&gt;" style="verticalLabelPosition=bottom;html=1;verticalAlign=top;align=center;strokeColor=none;fillColor=#00BEF2;shape=mxgraph.azure.service_bus_queues;pointerEvents=1;" vertex="1" parent="ofyRJqEsxBPMG2T8lIRP-81">
          <mxGeometry x="553" y="433" width="48.5" height="60" as="geometry" />
        </mxCell>
        <mxCell id="RLjyjs_sm2IHfBNOWAbh-24" value="Power BI&lt;div&gt;Reporting&lt;/div&gt;" style="shadow=0;dashed=0;html=1;strokeColor=none;labelPosition=center;verticalLabelPosition=bottom;verticalAlign=top;align=center;shape=mxgraph.mscae.cloud.power_bi_embedded;fillColor=#000000;pointerEvents=1;labelBackgroundColor=#ffffff;spacingTop=7;" parent="ofyRJqEsxBPMG2T8lIRP-81" vertex="1">
          <mxGeometry x="1017" y="360.00000000000006" width="47" height="50" as="geometry" />
        </mxCell>
        <mxCell id="ofyRJqEsxBPMG2T8lIRP-72" style="edgeStyle=orthogonalEdgeStyle;rounded=0;orthogonalLoop=1;jettySize=auto;html=1;entryX=0.5;entryY=0;entryDx=0;entryDy=0;" edge="1" parent="ofyRJqEsxBPMG2T8lIRP-81" source="RLjyjs_sm2IHfBNOWAbh-23" target="ofyRJqEsxBPMG2T8lIRP-39">
          <mxGeometry relative="1" as="geometry" />
        </mxCell>
        <mxCell id="RLjyjs_sm2IHfBNOWAbh-23" value="Events DB" style="aspect=fixed;html=1;perimeter=none;align=center;shadow=0;dashed=0;image;fontSize=12;image=img/lib/mscae/SQL_Database_generic.svg;labelBackgroundColor=#ffffff;fillColor=#4D9900;spacingTop=6;" parent="ofyRJqEsxBPMG2T8lIRP-81" vertex="1">
          <mxGeometry x="895.8800000000001" y="20" width="47.5" height="63.33" as="geometry" />
        </mxCell>
        <mxCell id="ofyRJqEsxBPMG2T8lIRP-5" style="edgeStyle=orthogonalEdgeStyle;rounded=0;orthogonalLoop=1;jettySize=auto;html=1;" edge="1" parent="ofyRJqEsxBPMG2T8lIRP-81" source="ofyRJqEsxBPMG2T8lIRP-1" target="ofyRJqEsxBPMG2T8lIRP-2">
          <mxGeometry relative="1" as="geometry" />
        </mxCell>
        <mxCell id="ofyRJqEsxBPMG2T8lIRP-1" value="Firelight &lt;br&gt;Agent" style="sketch=0;verticalLabelPosition=bottom;sketch=0;aspect=fixed;html=1;verticalAlign=top;strokeColor=none;fillColor=#000000;align=center;outlineConnect=0;pointerEvents=1;shape=mxgraph.citrix2.external_users;" vertex="1" parent="ofyRJqEsxBPMG2T8lIRP-81">
          <mxGeometry y="237" width="54.26" height="56" as="geometry" />
        </mxCell>
        <mxCell id="ofyRJqEsxBPMG2T8lIRP-8" style="edgeStyle=orthogonalEdgeStyle;rounded=0;orthogonalLoop=1;jettySize=auto;html=1;" edge="1" parent="ofyRJqEsxBPMG2T8lIRP-81" source="ofyRJqEsxBPMG2T8lIRP-2" target="ofyRJqEsxBPMG2T8lIRP-6">
          <mxGeometry relative="1" as="geometry" />
        </mxCell>
        <mxCell id="ofyRJqEsxBPMG2T8lIRP-23" value="HTTP POST" style="edgeLabel;html=1;align=center;verticalAlign=middle;resizable=0;points=[];" vertex="1" connectable="0" parent="ofyRJqEsxBPMG2T8lIRP-8">
          <mxGeometry x="0.1659" y="3" relative="1" as="geometry">
            <mxPoint as="offset" />
          </mxGeometry>
        </mxCell>
        <mxCell id="ofyRJqEsxBPMG2T8lIRP-16" style="edgeStyle=orthogonalEdgeStyle;rounded=0;orthogonalLoop=1;jettySize=auto;html=1;" edge="1" parent="ofyRJqEsxBPMG2T8lIRP-81" source="ofyRJqEsxBPMG2T8lIRP-2" target="ofyRJqEsxBPMG2T8lIRP-14">
          <mxGeometry relative="1" as="geometry" />
        </mxCell>
        <mxCell id="ofyRJqEsxBPMG2T8lIRP-17" value="Token Validation /&amp;nbsp;&lt;div&gt;Authentication&lt;/div&gt;" style="edgeLabel;html=1;align=center;verticalAlign=middle;resizable=0;points=[];" vertex="1" connectable="0" parent="ofyRJqEsxBPMG2T8lIRP-16">
          <mxGeometry x="0.1294" relative="1" as="geometry">
            <mxPoint as="offset" />
          </mxGeometry>
        </mxCell>
        <mxCell id="ofyRJqEsxBPMG2T8lIRP-2" value="APIM &#xa;Gateway&#xa;Endpoint&#xa;HUB - API" style="shape=image;verticalLabelPosition=bottom;labelBackgroundColor=#ffffff;verticalAlign=top;aspect=fixed;imageAspect=0;image=data:image/svg+xml,PHN2ZyB4bWxuczpjYz0iaHR0cDovL2NyZWF0aXZlY29tbW9ucy5vcmcvbnMjIiB4bWxuczpkYz0iaHR0cDovL3B1cmwub3JnL2RjL2VsZW1lbnRzLzEuMS8iIHhtbG5zOmlua3NjYXBlPSJodHRwOi8vd3d3Lmlua3NjYXBlLm9yZy9uYW1lc3BhY2VzL2lua3NjYXBlIiB4bWxuczpyZGY9Imh0dHA6Ly93d3cudzMub3JnLzE5OTkvMDIvMjItcmRmLXN5bnRheC1ucyMiIHhtbG5zOnNvZGlwb2RpPSJodHRwOi8vc29kaXBvZGkuc291cmNlZm9yZ2UubmV0L0RURC9zb2RpcG9kaS0wLmR0ZCIgeG1sbnM6c3ZnPSJodHRwOi8vd3d3LnczLm9yZy8yMDAwL3N2ZyIgeG1sbnM9Imh0dHA6Ly93d3cudzMub3JnLzIwMDAvc3ZnIiB4bWxuczp4bGluaz0iaHR0cDovL3d3dy53My5vcmcvMTk5OS94bGluayIgdmVyc2lvbj0iMS4xIiBpZD0ic3ZnNDg3MiIgeD0iMHB4IiB5PSIwcHgiIHZpZXdCb3g9IjAgMCA1MS4yMiAzOSIgc3R5bGU9ImVuYWJsZS1iYWNrZ3JvdW5kOm5ldyAwIDAgNTEuMjIgMzk7IiB4bWw6c3BhY2U9InByZXNlcnZlIj4mI3hhOzxzb2RpcG9kaTpuYW1lZHZpZXcgYm9yZGVyY29sb3I9IiM2NjY2NjYiIGJvcmRlcm9wYWNpdHk9IjEiIGZpdC1tYXJnaW4tYm90dG9tPSIwIiBmaXQtbWFyZ2luLWxlZnQ9IjAiIGZpdC1tYXJnaW4tcmlnaHQ9IjAiIGZpdC1tYXJnaW4tdG9wPSIwIiBncmlkdG9sZXJhbmNlPSIxMCIgZ3VpZGV0b2xlcmFuY2U9IjEwIiBpZD0ibmFtZWR2aWV3NDg3NCIgaW5rc2NhcGU6Y3VycmVudC1sYXllcj0ic3ZnNDg3MiIgaW5rc2NhcGU6Y3g9IjMxLjI0NTU3NiIgaW5rc2NhcGU6Y3k9IjIyLjM0Mjc2MSIgaW5rc2NhcGU6cGFnZW9wYWNpdHk9IjAiIGlua3NjYXBlOnBhZ2VzaGFkb3c9IjIiIGlua3NjYXBlOndpbmRvdy1oZWlnaHQ9IjEwMTciIGlua3NjYXBlOndpbmRvdy1tYXhpbWl6ZWQ9IjEiIGlua3NjYXBlOndpbmRvdy13aWR0aD0iMTkyMCIgaW5rc2NhcGU6d2luZG93LXg9Ii04IiBpbmtzY2FwZTp3aW5kb3cteT0iLTgiIGlua3NjYXBlOnpvb209IjE0LjYxOTE2MSIgb2JqZWN0dG9sZXJhbmNlPSIxMCIgcGFnZWNvbG9yPSIjZmZmZmZmIiBzaG93Z3JpZD0iZmFsc2UiPiYjeGE7CTwvc29kaXBvZGk6bmFtZWR2aWV3PiYjeGE7PGcgaWQ9Imc0ODcwIiB0cmFuc2Zvcm09InRyYW5zbGF0ZSgtNC4zNTE3NywwLjAwMzI4KSI+JiN4YTsJPHRpdGxlIGlkPSJ0aXRsZTQ4MzAiPlBhZ2UtMTwvdGl0bGU+JiN4YTsJPGcgaWQ9Imdyb3VwMTU1OC0xIiB0cmFuc2Zvcm09InRyYW5zbGF0ZSg0LjM1MTc3LC01LjQ4MzI4KSI+JiN4YTsJCTx0aXRsZSBpZD0idGl0bGU0ODMyIj5BUElNIEdhdGV3YXk8L3RpdGxlPiYjeGE7CQk8ZyBpZD0ic2hhcGUxNTU5LTIiPiYjeGE7CQkJPHRpdGxlIGlkPSJ0aXRsZTQ4MzQiPlNoZWV0LjE1NTk8L3RpdGxlPiYjeGE7CQkJPHBhdGggaWQ9InBhdGg0ODM2IiBpbmtzY2FwZTpjb25uZWN0b3ItY3VydmF0dXJlPSIwIiBzdHlsZT0iZmlsbC1ydWxlOmV2ZW5vZGQ7Y2xpcC1ydWxlOmV2ZW5vZGQ7ZmlsbDojNTk1OTU5OyIgZD0iTTQ5LjI1LDUuNDggICAgIGMtNDcuMjcsMC00Ny4yNywwLTQ3LjI3LDBDMC4zOCw1LjQ4LDAsNS44NCwwLDcuN2MwLDM0LjU3LDAsMzQuNTcsMCwzNC41N2MwLDEuODUsMC4zOCwyLjIxLDEuOTgsMi4yMWM0Ny4yNywwLDQ3LjI3LDAsNDcuMjcsMCAgICAgYzEuNjUsMCwxLjk3LTAuMzYsMS45Ny0yLjIxYzAtMzQuNTcsMC0zNC41NywwLTM0LjU3QzUxLjIyLDUuODQsNTAuOSw1LjQ4LDQ5LjI1LDUuNDh6Ii8+JiN4YTsJCTwvZz4mI3hhOwkJPGcgaWQ9InNoYXBlMTU2MC00IiB0cmFuc2Zvcm09InRyYW5zbGF0ZSgxLjQ4ODQ1LC0zMi4wNzMxKSI+JiN4YTsJCQk8dGl0bGUgaWQ9InRpdGxlNDgzOSI+U2hlZXQuMTU2MDwvdGl0bGU+JiN4YTsJCQk8cGF0aCBpZD0icGF0aDQ4NDEiIGlua3NjYXBlOmNvbm5lY3Rvci1jdXJ2YXR1cmU9IjAiIHN0eWxlPSJmaWxsLXJ1bGU6ZXZlbm9kZDtjbGlwLXJ1bGU6ZXZlbm9kZDtmaWxsOiMwMEIwRjA7IiBkPSJNMCw0MS41OSAgICAgYzAtMS42LDEuMTYtMi44OSwyLjU4LTIuODljMS40MywwLDIuNTksMS4yOSwyLjU5LDIuODlzLTEuMTYsMi44OS0yLjU5LDIuODlDMS4xNiw0NC40OCwwLDQzLjE5LDAsNDEuNTl6Ii8+JiN4YTsJCTwvZz4mI3hhOwkJPGcgaWQ9InNoYXBlMTU2MS02IiB0cmFuc2Zvcm09InRyYW5zbGF0ZSgyLjUzOTEyLC0zMy42NTA1KSI+JiN4YTsJCQk8dGl0bGUgaWQ9InRpdGxlNDg0NCI+U2hlZXQuMTU2MTwvdGl0bGU+JiN4YTsJCQk8cGF0aCBpZD0icGF0aDQ4NDYiIGlua3NjYXBlOmNvbm5lY3Rvci1jdXJ2YXR1cmU9IjAiIHN0eWxlPSJmaWxsLXJ1bGU6ZXZlbm9kZDtjbGlwLXJ1bGU6ZXZlbm9kZDtmaWxsOiNGRkZGRkY7IiBkPSJNMS4wNyw0Mi44OCAgICAgbDAuODQtMC45NGgtMC43TDAsNDMuMjRsMS4yMSwxLjI0aDAuN2wtMC44NC0wLjk1aDEuOTl2LTAuNjVMMS4wNyw0Mi44OHoiLz4mI3hhOwkJPC9nPiYjeGE7CQk8ZyBpZD0ic2hhcGUxNTYyLTgiIHRyYW5zZm9ybT0idHJhbnNsYXRlKDEuMzEzMzQsLTEuOTI3ODkpIj4mI3hhOwkJCTx0aXRsZSBpZD0idGl0bGU0ODQ5Ij5TaGVldC4xNTYyPC90aXRsZT4mI3hhOwkJCTxwYXRoIGlkPSJwYXRoNDg1MSIgaW5rc2NhcGU6Y29ubmVjdG9yLWN1cnZhdHVyZT0iMCIgc3R5bGU9ImZpbGwtcnVsZTpldmVub2RkO2NsaXAtcnVsZTpldmVub2RkO2ZpbGw6IzU5QjREOTsiIGQ9Ik0wLDE1LjQ3ICAgICB2MjkuMDFoNDguNjhWMTUuNDdIMHoiLz4mI3hhOwkJPC9nPiYjeGE7CQk8ZyBpZD0ic2hhcGUxNTYzLTEwIiB0cmFuc2Zvcm09InRyYW5zbGF0ZSg3LjYxNzM1LC0zMy40NzUyKSI+JiN4YTsJCQk8dGl0bGUgaWQ9InRpdGxlNDg1NCI+U2hlZXQuMTU2MzwvdGl0bGU+JiN4YTsJCQk8cGF0aCBpZD0icGF0aDQ4NTYiIGlua3NjYXBlOmNvbm5lY3Rvci1jdXJ2YXR1cmU9IjAiIHN0eWxlPSJmaWxsLXJ1bGU6ZXZlbm9kZDtjbGlwLXJ1bGU6ZXZlbm9kZDtmaWxsOiNGRkZGRkY7IiBkPSJNMCw0MS4xNSAgICAgdjMuMzNoNDIuMDN2LTMuMzNIMHoiLz4mI3hhOwkJPC9nPiYjeGE7CQk8ZyBpZD0ic2hhcGUxNTY0LTEyIiB0cmFuc2Zvcm09InRyYW5zbGF0ZSg2LjE5MzA1LC05LjM0NTE1KSI+JiN4YTsJCQk8dGl0bGUgaWQ9InRpdGxlNDg1OSI+QVBJIE1hbmFnZW1lbnQ8L3RpdGxlPiYjeGE7CQkJPHBhdGggaWQ9InBhdGg0ODYxIiBpbmtzY2FwZTpjb25uZWN0b3ItY3VydmF0dXJlPSIwIiBzdHlsZT0iZmlsbC1ydWxlOmV2ZW5vZGQ7Y2xpcC1ydWxlOmV2ZW5vZGQ7ZmlsbDojRkZGRkZGOyIgZD0iICAgICBNMTMuOTUsMzYuNzJjMC4wMy0wLjIyLDAuMDMtMC40OCwwLjAzLTAuNzFjMC0yLjc3LTIuMjgtNS4wOS01LjA1LTUuMDlIOC45Yy0xLjk5LDAtMy43OCwxLjI0LTQuNiwzLjAzICAgICBjLTAuMjMtMC4wMy0wLjQ1LTAuMDMtMC42OC0wLjAzQzEuNiwzMy45MiwwLDM1LjU1LDAsMzcuNTdjMCwxLjk5LDEuNjMsMy42MiwzLjY1LDMuNjJoMS44NmMwLjA2LDAuMjYsMC4yMywwLjQ5LDAuNDIsMC42OCAgICAgYzAuNjUsMC42NSwxLjczLDAuNjUsMi4zOCwwczAuNjUtMS42OSwwLTIuMzRjLTAuNjUtMC42Ni0xLjctMC42Ni0yLjM4LDBjLTAuMTYsMC4xNi0wLjI5LDAuMzUtMC4zNiwwLjU1bC0xLjg5LTAuMDMgICAgIGMtMS40LDAtMi41MS0xLjExLTIuNTQtMi40OGMwLTEuNCwxLjE0LTIuNTEsMi41NC0yLjUxYzAuMjYsMCwwLjU2LDAuMDcsMC44MiwwLjEzbDAuNTIsMC4ybDAuMTYtMC41MiAgICAgYzAuNTItMS42MywyLjA1LTIuNzEsMy43NS0yLjcxYzIuMTgsMCwzLjk0LDEuNzYsMy45NCwzLjk0YzAsMC4zNi0wLjAzLDAuNzItMC4xMywxLjA1bC0wLjIzLDAuNzhsMC44Mi0wLjFjMC4wNiwwLDAuMSwwLDAuMTMsMCAgICAgYzAuNjIsMCwxLjE0LDAuNTIsMS4xNCwxLjE0YzAsMC41OS0wLjQzLDEuMDgtMS4wMSwxLjE0YzAsMC0yLjcxLDAuMDQtMi44NywwLjA0Yy0wLjEzLTAuNzUtMC40OS0xLjQ3LTEuMDQtMi4wMiAgICAgYy0wLjY5LTAuNzItMS42My0xLjExLTIuNjQtMS4xMWMtMC42OSwwLTEuMzQsMC4xOS0xLjkyLDAuNTJsMC41OCwwLjk0YzAuMzktMC4yNiwwLjg4LTAuMzksMS4zNy0wLjM5ICAgICBjMC42OSwwLDEuMzcsMC4yNiwxLjg2LDAuNzhjMC40OSwwLjQ5LDAuNzgsMS4xNSwwLjc4LDEuODZjMCwwLjY5LTAuMjYsMS4zNy0wLjc4LDEuODZjLTAuNDksMC40OS0xLjE0LDAuNzgtMS44NiwwLjc4ICAgICBjLTAuNDksMC0wLjk4LTAuMTMtMS4zNy0wLjM5bC0wLjU4LDAuOTVjMC41OCwwLjM1LDEuMjcsMC41NSwxLjk1LDAuNTVjMS4wMSwwLDEuOTItMC4zOSwyLjY0LTEuMTEgICAgIGMwLjU5LTAuNTksMC45NS0xLjMzLDEuMDQtMi4xMmMwLjEzLDAsMi44Ny0wLjAzLDIuODctMC4wM2gwLjAzYzEuMTgtMC4xLDIuMDYtMS4wNywyLjA2LTIuMjUgICAgIEMxNS43NCwzNy44MywxNC45OSwzNi45MiwxMy45NSwzNi43MnoiLz4mI3hhOwkJPC9nPiYjeGE7CQk8ZyBpZD0ic2hhcGUxNTY1LTE0IiB0cmFuc2Zvcm09InRyYW5zbGF0ZSgyNy42MTU3LC04LjI1MDA3KSI+JiN4YTsJCQk8dGl0bGUgaWQ9InRpdGxlNDg2NCI+U2hlZXQuMTU2NTwvdGl0bGU+JiN4YTsJCQk8cGF0aCBpZD0icGF0aDQ4NjYiIGlua3NjYXBlOmNvbm5lY3Rvci1jdXJ2YXR1cmU9IjAiIHN0eWxlPSJmaWxsLXJ1bGU6ZXZlbm9kZDtjbGlwLXJ1bGU6ZXZlbm9kZDtmaWxsOiNGRkZGRkY7IiBkPSIgICAgIE0xNS41NiwzNy4zMmMtMS4xNy0wLjM2LTEuMTctMC4zNi0xLjE3LTAuMzZjMC4wMy0wLjEzLDAuMDMtMC4yNCwwLjAzLTAuMzVjMC0wLjE0LDAtMC4yNS0wLjAzLTAuMzYgICAgIGMxLjE3LTAuMzksMS4xNy0wLjM5LDEuMTctMC4zOWMwLjExLTAuMDMsMC4xOC0wLjE0LDAuMTgtMC4yNGMtMC4wMy0wLjIyLTAuMDctMC4zOS0wLjEtMC41N2MwLTAuMTEtMC4xMS0wLjIxLTAuMjEtMC4yMSAgICAgYy0wLjA0LDAtMC4wNCwwLTAuMDQsMGMtMS4yMSwwLjA0LTEuMjEsMC4wNC0xLjIxLDAuMDRjLTAuMDctMC4yNi0wLjE0LTAuNDctMC4yMS0wLjY4YzAuOTYtMC43MSwwLjk2LTAuNzEsMC45Ni0wLjcxICAgICBjMC4xLTAuMDcsMC4xNC0wLjIxLDAuMS0wLjMyYy0wLjA3LTAuMTQtMC4xOC0wLjMyLTAuMjgtMC41Yy0wLjAzLTAuMS0wLjE4LTAuMTQtMC4yOS0wLjFjLTEuMTcsMC4zOS0xLjE3LDAuMzktMS4xNywwLjM5ICAgICBjLTAuMS0wLjIyLTAuMjUtMC4zOS0wLjM5LTAuNTdjMC43Mi0wLjk1LDAuNzItMC45NSwwLjcyLTAuOTVjMC4wNi0wLjExLDAuMDMtMC4yNi0wLjA0LTAuMzNjLTAuMTUtMC4xNC0wLjI5LTAuMjgtMC40My0wLjQyICAgICBjLTAuMDctMC4wNy0wLjIxLTAuMDctMC4zMiwwYy0wLjk2LDAuNzEtMC45NiwwLjcxLTAuOTYsMC43MWMtMC4xNy0wLjExLTAuMzYtMC4yNS0wLjU3LTAuMzVjMC40LTEuMTQsMC40LTEuMTQsMC40LTEuMTQgICAgIGMwLjAzLTAuMTQsMC0wLjI1LTAuMTEtMC4zMmMtMC4xOC0wLjA3LTAuNC0wLjE4LTAuNTctMC4yNWMtMC4xMS0wLjA0LTAuMjIsMC0wLjI4LDAuMDdjLTAuNzIsMC45OS0wLjcyLDAuOTktMC43MiwwLjk5ICAgICBjLTAuMjEtMC4wMy0wLjQyLTAuMS0wLjYtMC4xM2MwLTEuMjEsMC0xLjIxLDAtMS4yMWMwLTAuMTUtMC4xMS0wLjI1LTAuMjEtMC4yNWMtMC4yMi0wLjA0LTAuMzktMC4wNy0wLjYxLTAuMDcgICAgIGMtMC4xLTAuMDQtMC4yMSwwLjAzLTAuMjQsMC4xNGMtMC40LDEuMTctMC40LDEuMTctMC40LDEuMTdjLTAuMTcsMC0wLjM5LDAtMC41NiwwLjAzYy0wLjM5LTEuMTMtMC4zOS0xLjEzLTAuMzktMS4xMyAgICAgYy0wLjA0LTAuMTQtMC4xNS0wLjIxLTAuMjUtMC4xOGMtMC4yMiwwLjA0LTAuNDIsMC4wNy0wLjY0LDAuMTFjLTAuMTEsMC4wMy0wLjE4LDAuMTQtMC4xOCwwLjI1YzAsMS4yNCwwLDEuMjQsMCwxLjI0ICAgICBjLTAuMTgsMC4wMy0wLjM1LDAuMS0wLjUzLDAuMThjLTAuNzEtMS0wLjcxLTEtMC43MS0xYy0wLjA4LTAuMDYtMC4xOC0wLjEtMC4yOC0wLjA2Yy0wLjIyLDAuMS0wLjQsMC4yLTAuNjEsMC4zMSAgICAgYy0wLjA3LDAuMDgtMC4xNCwwLjE4LTAuMSwwLjI4YzAuMzksMS4xNywwLjM5LDEuMTcsMC4zOSwxLjE3Yy0wLjE1LDAuMTEtMC4yOSwwLjIyLTAuMzksMC4zMmMtMS0wLjcxLTEtMC43MS0xLTAuNzEgICAgIGMtMC4wNy0wLjA3LTAuMjEtMC4wNy0wLjI5LDBjLTAuMTcsMC4xOS0wLjMyLDAuMzItMC40OSwwLjVjLTAuMDcsMC4wOC0wLjA3LDAuMjEsMCwwLjMyYzAuNzEsMC45NiwwLjcxLDAuOTYsMC43MSwwLjk2ICAgICBjLTAuMDcsMC4xNC0wLjE4LDAuMjgtMC4yOCwwLjQyYy0xLjE0LTAuMzktMS4xNC0wLjM5LTEuMTQtMC4zOWMtMC4xMS0wLjAzLTAuMjIsMC0wLjI5LDAuMTFjLTAuMSwwLjIyLTAuMjEsMC40My0wLjMyLDAuNjQgICAgIGMtMC4wMywwLjEsMCwwLjIxLDAuMTEsMC4yOGMwLjk5LDAuNzEsMC45OSwwLjcxLDAuOTksMC43MWMtMC4wNywwLjE1LTAuMSwwLjI4LTAuMTMsMC40N2MtMS4yMSwwLTEuMjEsMC0xLjIxLDBsMCwwICAgICBjLTAuMTUsMC0wLjI1LDAuMDYtMC4yNSwwLjE3Yy0wLjA3LDAuMjItMC4xMSwwLjQ2LTAuMTEsMC42N2MtMC4wNCwwLjE0LDAuMDQsMC4yNSwwLjE4LDAuMjljMS4xMywwLjM1LDEuMTMsMC4zNSwxLjEzLDAuMzUgICAgIGMwLDAuMDgsMCwwLjE4LDAsMC4yNXMwLDAuMTQsMCwwLjIyYy0xLjEzLDAuMzktMS4xMywwLjM5LTEuMTMsMC4zOWMtMC4xNCwwLjAzLTAuMjIsMC4xMy0wLjE4LDAuMjRjMCwwLjIxLDAuMDQsMC40NiwwLjExLDAuNjcgICAgIGMwLDAuMTUsMC4xLDAuMjIsMC4yNSwwLjIybDAsMGMxLjIxLDAsMS4yMSwwLDEuMjEsMGMwLjAzLDAuMTQsMC4wNiwwLjI4LDAuMTMsMC40M2MtMC45OSwwLjctMC45OSwwLjctMC45OSwwLjcgICAgIGMtMC4xMSwwLjA4LTAuMTQsMC4yMS0wLjExLDAuMzJjMC4xMSwwLjIxLDAuMjIsMC40MywwLjMyLDAuNmMwLjA3LDAuMTEsMC4xOCwwLjE1LDAuMjksMC4xMWMxLjE0LTAuMzUsMS4xNC0wLjM1LDEuMTQtMC4zNSAgICAgYzAuMSwwLjE0LDAuMjEsMC4yNCwwLjI4LDAuMzljLTAuNzEsMC45OS0wLjcxLDAuOTktMC43MSwwLjk5Yy0wLjA3LDAuMDctMC4wNywwLjIxLDAsMC4yOUMyLjEsNDIsMi4yNSw0Mi4xOCwyLjQyLDQyLjMyICAgICBjMC4wOCwwLjA3LDAuMjIsMC4xLDAuMjksMC4wM2MxLTAuNzEsMS0wLjcxLDEtMC43MWMwLjEsMC4xMSwwLjI0LDAuMjIsMC4zOSwwLjI5QzMuNzEsNDMuMSwzLjcxLDQzLjEsMy43MSw0My4xICAgICBjLTAuMDQsMC4xLDAuMDMsMC4yNSwwLjEsMC4yOWMwLjIxLDAuMTMsMC4zOSwwLjI0LDAuNjEsMC4zMWMwLjEsMC4wOCwwLjIsMC4wNCwwLjI4LTAuMDdjMC43MS0wLjk2LDAuNzEtMC45NiwwLjcxLTAuOTYgICAgIGMwLjE4LDAuMDcsMC4zNSwwLjExLDAuNTMsMC4xOGMwLDEuMjEsMCwxLjIxLDAsMS4yMWMwLDAuMTQsMC4wNywwLjIxLDAuMTgsMC4yNGMwLjIyLDAuMDgsMC40MiwwLjExLDAuNjQsMC4xMSAgICAgYzAuMSwwLjA0LDAuMjEtMC4wMywwLjI1LTAuMTRjMC4zOS0xLjE0LDAuMzktMS4xNCwwLjM5LTEuMTRjMC4xNywwLDAuMzksMCwwLjU2LDBjMC40LDEuMTcsMC40LDEuMTcsMC40LDEuMTcgICAgIGMwLjAzLDAuMTEsMC4xLDAuMTgsMC4yMSwwLjE4SDguNmMwLjIyLTAuMDMsMC4zOS0wLjAzLDAuNjEtMC4wN2MwLjEtMC4wMywwLjIxLTAuMTQsMC4yMS0wLjI0YzAtMS4yMSwwLTEuMjEsMC0xLjIxICAgICBjMC4xOC0wLjA0LDAuMzktMC4xMSwwLjYtMC4xOGMwLjcyLDEsMC43MiwxLDAuNzIsMWMwLjA2LDAuMSwwLjE3LDAuMTMsMC4yOCwwLjA2YzAuMTctMC4wNiwwLjM5LTAuMTQsMC41Ny0wLjI0ICAgICBjMC4xMS0wLjA4LDAuMTQtMC4xOCwwLjExLTAuMjljLTAuNC0xLjE3LTAuNC0xLjE3LTAuNC0xLjE3YzAuMjEtMC4xMSwwLjQtMC4yMSwwLjU3LTAuMzVjMC45NiwwLjcxLDAuOTYsMC43MSwwLjk2LDAuNzEgICAgIGMwLjExLDAuMDcsMC4yNSwwLjA3LDAuMzIsMGMwLjE0LTAuMTUsMC4yOC0wLjI1LDAuNDMtMC4zOWMwLjA3LTAuMTEsMC4xLTAuMjUsMC4wNC0wLjMyYy0wLjcyLTEtMC43Mi0xLTAuNzItMSAgICAgYzAuMTQtMC4xNywwLjI5LTAuMzUsMC4zOS0wLjUyYzEuMTcsMC4zOSwxLjE3LDAuMzksMS4xNywwLjM5YzAuMTEsMC4wMywwLjI2LTAuMDQsMC4yOS0wLjE1YzAuMS0wLjE3LDAuMjEtMC4zMiwwLjI4LTAuNSAgICAgYzAuMDQtMC4xLDAtMC4yMS0wLjEtMC4yOGMtMC45Ni0wLjcxLTAuOTYtMC43MS0wLjk2LTAuNzFjMC4wNy0wLjI0LDAuMTQtMC40NiwwLjIxLTAuNjdjMS4yMSwwLDEuMjEsMCwxLjIxLDAgICAgIGMwLjE0LDAsMC4yNS0wLjA3LDAuMjUtMC4yMmMwLjAzLTAuMTcsMC4wNy0wLjM1LDAuMS0wLjUyQzE1Ljc0LDM3LjQ2LDE1LjY3LDM3LjM1LDE1LjU2LDM3LjMyeiBNNS44MywzNi4xMSAgICAgYy0wLjAzLDAuMTQtMC4wMywwLjI1LDAuMDQsMC4zNmMwLjA3LDAuMSwwLjE3LDAuMTQsMC4zMiwwLjE0YzEuMjUsMCwxLjI1LDAsMS4yNSwwYy0xLjQsMy40LTEuNCwzLjQtMS40LDMuNCAgICAgYy0wLjAzLDAuMDQtMC4xLDAuMTgsMCwwLjI5YzAuMDQsMC4wNywwLjExLDAuMTQsMC4yMiwwLjE0YzAuMTEsMCwwLjE4LTAuMDcsMC4yNS0wLjE0YzQuNjEtNS4yNSw0LjYxLTUuMjUsNC42MS01LjI1ICAgICBjMC4xMS0wLjE0LDAuMTUtMC4yNSwwLjA3LTAuMzljLTAuMDMtMC4xLTAuMTMtMC4xOC0wLjMxLTAuMThsMCwwYy0xLjUzLDAtMS41MywwLTEuNTMsMGMxLjEzLTEuOTEsMS4xMy0xLjkxLDEuMTMtMS45MSAgICAgYzEuMzYsMC44OCwyLjIxLDIuNDEsMi4yMSw0LjA0YzAsMi42Mi0yLjE3LDQuNzktNC44Myw0Ljc5Yy0yLjYzLDAtNC43OS0yLjE3LTQuNzktNC43OWMwLTIuNTIsMS45MS00LjU4LDQuNC00Ljc4TDUuODMsMzYuMTF6Ii8+JiN4YTsJCTwvZz4mI3hhOwk8L2c+JiN4YTs8L2c+JiN4YTs8L3N2Zz4=;" vertex="1" parent="ofyRJqEsxBPMG2T8lIRP-81">
          <mxGeometry x="120" y="240" width="65.38" height="50" as="geometry" />
        </mxCell>
        <mxCell id="ofyRJqEsxBPMG2T8lIRP-4" style="edgeStyle=orthogonalEdgeStyle;rounded=0;orthogonalLoop=1;jettySize=auto;html=1;" edge="1" parent="ofyRJqEsxBPMG2T8lIRP-81" source="ofyRJqEsxBPMG2T8lIRP-3" target="ofyRJqEsxBPMG2T8lIRP-2">
          <mxGeometry relative="1" as="geometry" />
        </mxCell>
        <mxCell id="ofyRJqEsxBPMG2T8lIRP-18" value="Public Endpoint with &lt;br&gt;IP Whitelisting" style="edgeLabel;html=1;align=center;verticalAlign=middle;resizable=0;points=[];" vertex="1" connectable="0" parent="ofyRJqEsxBPMG2T8lIRP-4">
          <mxGeometry x="-0.1904" y="-1" relative="1" as="geometry">
            <mxPoint as="offset" />
          </mxGeometry>
        </mxCell>
        <mxCell id="ofyRJqEsxBPMG2T8lIRP-3" value="" style="image;sketch=0;aspect=fixed;html=1;points=[];align=center;fontSize=12;image=img/lib/mscae/DNS.svg;" vertex="1" parent="ofyRJqEsxBPMG2T8lIRP-81">
          <mxGeometry x="127" y="2" width="50" height="50" as="geometry" />
        </mxCell>
        <mxCell id="ofyRJqEsxBPMG2T8lIRP-49" style="edgeStyle=orthogonalEdgeStyle;rounded=0;orthogonalLoop=1;jettySize=auto;html=1;entryX=1;entryY=0.75;entryDx=0;entryDy=0;" edge="1" parent="ofyRJqEsxBPMG2T8lIRP-81" source="ofyRJqEsxBPMG2T8lIRP-6" target="ofyRJqEsxBPMG2T8lIRP-2">
          <mxGeometry relative="1" as="geometry" />
        </mxCell>
        <mxCell id="ofyRJqEsxBPMG2T8lIRP-50" value="HTTP 200 OK" style="edgeLabel;html=1;align=center;verticalAlign=middle;resizable=0;points=[];" vertex="1" connectable="0" parent="ofyRJqEsxBPMG2T8lIRP-49">
          <mxGeometry x="0.2252" relative="1" as="geometry">
            <mxPoint as="offset" />
          </mxGeometry>
        </mxCell>
        <mxCell id="ofyRJqEsxBPMG2T8lIRP-6" value="103&amp;nbsp;&lt;div&gt;Submission &lt;br&gt;Function&lt;/div&gt;" style="image;aspect=fixed;html=1;points=[];align=center;fontSize=12;image=img/lib/azure2/compute/Function_Apps.svg;" vertex="1" parent="ofyRJqEsxBPMG2T8lIRP-81">
          <mxGeometry x="314" y="222" width="68" height="60" as="geometry" />
        </mxCell>
        <mxCell id="ofyRJqEsxBPMG2T8lIRP-9" value="Receive 103 XML" style="edgeStyle=orthogonalEdgeStyle;rounded=0;orthogonalLoop=1;jettySize=auto;html=1;entryX=0.175;entryY=0.46;entryDx=0;entryDy=0;entryPerimeter=0;" edge="1" parent="ofyRJqEsxBPMG2T8lIRP-81" source="ofyRJqEsxBPMG2T8lIRP-6" target="ofyRJqEsxBPMG2T8lIRP-12">
          <mxGeometry relative="1" as="geometry">
            <mxPoint x="463.58899999999994" y="264.4" as="targetPoint" />
          </mxGeometry>
        </mxCell>
        <mxCell id="ofyRJqEsxBPMG2T8lIRP-30" style="edgeStyle=orthogonalEdgeStyle;rounded=0;orthogonalLoop=1;jettySize=auto;html=1;" edge="1" parent="ofyRJqEsxBPMG2T8lIRP-81" source="ofyRJqEsxBPMG2T8lIRP-12" target="ofyRJqEsxBPMG2T8lIRP-26">
          <mxGeometry relative="1" as="geometry" />
        </mxCell>
        <mxCell id="ofyRJqEsxBPMG2T8lIRP-12" value="TX103 submissions&lt;div&gt;queue&lt;/div&gt;" style="verticalLabelPosition=bottom;html=1;verticalAlign=top;align=center;strokeColor=none;fillColor=#00BEF2;shape=mxgraph.azure.service_bus_queues;pointerEvents=1;" vertex="1" parent="ofyRJqEsxBPMG2T8lIRP-81">
          <mxGeometry x="549" y="228" width="52.5" height="57" as="geometry" />
        </mxCell>
        <mxCell id="ofyRJqEsxBPMG2T8lIRP-14" value="Azure B2C&lt;div&gt;Instance&lt;/div&gt;" style="image;aspect=fixed;html=1;points=[];align=center;fontSize=12;image=img/lib/azure2/identity/Azure_AD_B2C.svg;" vertex="1" parent="ofyRJqEsxBPMG2T8lIRP-81">
          <mxGeometry x="118.19" y="561" width="69" height="64" as="geometry" />
        </mxCell>
        <mxCell id="ofyRJqEsxBPMG2T8lIRP-57" style="edgeStyle=orthogonalEdgeStyle;rounded=0;orthogonalLoop=1;jettySize=auto;html=1;entryX=0.25;entryY=1;entryDx=0;entryDy=0;" edge="1" parent="ofyRJqEsxBPMG2T8lIRP-81" source="ofyRJqEsxBPMG2T8lIRP-26" target="ofyRJqEsxBPMG2T8lIRP-52">
          <mxGeometry relative="1" as="geometry">
            <Array as="points">
              <mxPoint x="714" y="210" />
              <mxPoint x="675" y="210" />
            </Array>
          </mxGeometry>
        </mxCell>
        <mxCell id="ofyRJqEsxBPMG2T8lIRP-59" value="Request" style="edgeLabel;html=1;align=center;verticalAlign=middle;resizable=0;points=[];" vertex="1" connectable="0" parent="ofyRJqEsxBPMG2T8lIRP-57">
          <mxGeometry x="0.5257" y="1" relative="1" as="geometry">
            <mxPoint as="offset" />
          </mxGeometry>
        </mxCell>
        <mxCell id="ofyRJqEsxBPMG2T8lIRP-61" style="edgeStyle=orthogonalEdgeStyle;rounded=0;orthogonalLoop=1;jettySize=auto;html=1;curved=1;" edge="1" parent="ofyRJqEsxBPMG2T8lIRP-81" source="ofyRJqEsxBPMG2T8lIRP-26">
          <mxGeometry relative="1" as="geometry">
            <mxPoint x="913" y="110" as="targetPoint" />
          </mxGeometry>
        </mxCell>
        <mxCell id="ofyRJqEsxBPMG2T8lIRP-62" value="Log 103&amp;nbsp;" style="edgeLabel;html=1;align=center;verticalAlign=middle;resizable=0;points=[];" vertex="1" connectable="0" parent="ofyRJqEsxBPMG2T8lIRP-61">
          <mxGeometry x="-0.453" y="18" relative="1" as="geometry">
            <mxPoint as="offset" />
          </mxGeometry>
        </mxCell>
        <mxCell id="ofyRJqEsxBPMG2T8lIRP-65" style="edgeStyle=orthogonalEdgeStyle;rounded=0;orthogonalLoop=1;jettySize=auto;html=1;curved=1;" edge="1" parent="ofyRJqEsxBPMG2T8lIRP-81" source="ofyRJqEsxBPMG2T8lIRP-26" target="ofyRJqEsxBPMG2T8lIRP-63">
          <mxGeometry relative="1" as="geometry" />
        </mxCell>
        <mxCell id="ofyRJqEsxBPMG2T8lIRP-26" value="103 &lt;br&gt;Ingestion &lt;br&gt;Function&lt;div&gt;with Retry Logic&lt;/div&gt;" style="image;aspect=fixed;html=1;points=[];align=center;fontSize=12;image=img/lib/azure2/compute/Function_Apps.svg;" vertex="1" parent="ofyRJqEsxBPMG2T8lIRP-81">
          <mxGeometry x="680" y="241" width="68" height="60" as="geometry" />
        </mxCell>
        <mxCell id="ofyRJqEsxBPMG2T8lIRP-42" style="edgeStyle=orthogonalEdgeStyle;rounded=0;orthogonalLoop=1;jettySize=auto;html=1;entryX=1;entryY=0.5;entryDx=0;entryDy=0;" edge="1" parent="ofyRJqEsxBPMG2T8lIRP-81" source="ofyRJqEsxBPMG2T8lIRP-37" target="ofyRJqEsxBPMG2T8lIRP-39">
          <mxGeometry relative="1" as="geometry" />
        </mxCell>
        <mxCell id="ofyRJqEsxBPMG2T8lIRP-37" value="&lt;div&gt;OMD&lt;/div&gt;" style="image;aspect=fixed;html=1;points=[];align=center;fontSize=12;image=img/lib/azure2/app_services/App_Services.svg;" vertex="1" parent="ofyRJqEsxBPMG2T8lIRP-81">
          <mxGeometry x="1010" y="240" width="54" height="54" as="geometry" />
        </mxCell>
        <mxCell id="ofyRJqEsxBPMG2T8lIRP-39" value="APIM &#xa;Gateway&#xa;Endpoint&#xa;HUB - API" style="shape=image;verticalLabelPosition=bottom;labelBackgroundColor=#ffffff;verticalAlign=top;aspect=fixed;imageAspect=0;image=data:image/svg+xml,PHN2ZyB4bWxuczpjYz0iaHR0cDovL2NyZWF0aXZlY29tbW9ucy5vcmcvbnMjIiB4bWxuczpkYz0iaHR0cDovL3B1cmwub3JnL2RjL2VsZW1lbnRzLzEuMS8iIHhtbG5zOmlua3NjYXBlPSJodHRwOi8vd3d3Lmlua3NjYXBlLm9yZy9uYW1lc3BhY2VzL2lua3NjYXBlIiB4bWxuczpyZGY9Imh0dHA6Ly93d3cudzMub3JnLzE5OTkvMDIvMjItcmRmLXN5bnRheC1ucyMiIHhtbG5zOnNvZGlwb2RpPSJodHRwOi8vc29kaXBvZGkuc291cmNlZm9yZ2UubmV0L0RURC9zb2RpcG9kaS0wLmR0ZCIgeG1sbnM6c3ZnPSJodHRwOi8vd3d3LnczLm9yZy8yMDAwL3N2ZyIgeG1sbnM9Imh0dHA6Ly93d3cudzMub3JnLzIwMDAvc3ZnIiB4bWxuczp4bGluaz0iaHR0cDovL3d3dy53My5vcmcvMTk5OS94bGluayIgdmVyc2lvbj0iMS4xIiBpZD0ic3ZnNDg3MiIgeD0iMHB4IiB5PSIwcHgiIHZpZXdCb3g9IjAgMCA1MS4yMiAzOSIgc3R5bGU9ImVuYWJsZS1iYWNrZ3JvdW5kOm5ldyAwIDAgNTEuMjIgMzk7IiB4bWw6c3BhY2U9InByZXNlcnZlIj4mI3hhOzxzb2RpcG9kaTpuYW1lZHZpZXcgYm9yZGVyY29sb3I9IiM2NjY2NjYiIGJvcmRlcm9wYWNpdHk9IjEiIGZpdC1tYXJnaW4tYm90dG9tPSIwIiBmaXQtbWFyZ2luLWxlZnQ9IjAiIGZpdC1tYXJnaW4tcmlnaHQ9IjAiIGZpdC1tYXJnaW4tdG9wPSIwIiBncmlkdG9sZXJhbmNlPSIxMCIgZ3VpZGV0b2xlcmFuY2U9IjEwIiBpZD0ibmFtZWR2aWV3NDg3NCIgaW5rc2NhcGU6Y3VycmVudC1sYXllcj0ic3ZnNDg3MiIgaW5rc2NhcGU6Y3g9IjMxLjI0NTU3NiIgaW5rc2NhcGU6Y3k9IjIyLjM0Mjc2MSIgaW5rc2NhcGU6cGFnZW9wYWNpdHk9IjAiIGlua3NjYXBlOnBhZ2VzaGFkb3c9IjIiIGlua3NjYXBlOndpbmRvdy1oZWlnaHQ9IjEwMTciIGlua3NjYXBlOndpbmRvdy1tYXhpbWl6ZWQ9IjEiIGlua3NjYXBlOndpbmRvdy13aWR0aD0iMTkyMCIgaW5rc2NhcGU6d2luZG93LXg9Ii04IiBpbmtzY2FwZTp3aW5kb3cteT0iLTgiIGlua3NjYXBlOnpvb209IjE0LjYxOTE2MSIgb2JqZWN0dG9sZXJhbmNlPSIxMCIgcGFnZWNvbG9yPSIjZmZmZmZmIiBzaG93Z3JpZD0iZmFsc2UiPiYjeGE7CTwvc29kaXBvZGk6bmFtZWR2aWV3PiYjeGE7PGcgaWQ9Imc0ODcwIiB0cmFuc2Zvcm09InRyYW5zbGF0ZSgtNC4zNTE3NywwLjAwMzI4KSI+JiN4YTsJPHRpdGxlIGlkPSJ0aXRsZTQ4MzAiPlBhZ2UtMTwvdGl0bGU+JiN4YTsJPGcgaWQ9Imdyb3VwMTU1OC0xIiB0cmFuc2Zvcm09InRyYW5zbGF0ZSg0LjM1MTc3LC01LjQ4MzI4KSI+JiN4YTsJCTx0aXRsZSBpZD0idGl0bGU0ODMyIj5BUElNIEdhdGV3YXk8L3RpdGxlPiYjeGE7CQk8ZyBpZD0ic2hhcGUxNTU5LTIiPiYjeGE7CQkJPHRpdGxlIGlkPSJ0aXRsZTQ4MzQiPlNoZWV0LjE1NTk8L3RpdGxlPiYjeGE7CQkJPHBhdGggaWQ9InBhdGg0ODM2IiBpbmtzY2FwZTpjb25uZWN0b3ItY3VydmF0dXJlPSIwIiBzdHlsZT0iZmlsbC1ydWxlOmV2ZW5vZGQ7Y2xpcC1ydWxlOmV2ZW5vZGQ7ZmlsbDojNTk1OTU5OyIgZD0iTTQ5LjI1LDUuNDggICAgIGMtNDcuMjcsMC00Ny4yNywwLTQ3LjI3LDBDMC4zOCw1LjQ4LDAsNS44NCwwLDcuN2MwLDM0LjU3LDAsMzQuNTcsMCwzNC41N2MwLDEuODUsMC4zOCwyLjIxLDEuOTgsMi4yMWM0Ny4yNywwLDQ3LjI3LDAsNDcuMjcsMCAgICAgYzEuNjUsMCwxLjk3LTAuMzYsMS45Ny0yLjIxYzAtMzQuNTcsMC0zNC41NywwLTM0LjU3QzUxLjIyLDUuODQsNTAuOSw1LjQ4LDQ5LjI1LDUuNDh6Ii8+JiN4YTsJCTwvZz4mI3hhOwkJPGcgaWQ9InNoYXBlMTU2MC00IiB0cmFuc2Zvcm09InRyYW5zbGF0ZSgxLjQ4ODQ1LC0zMi4wNzMxKSI+JiN4YTsJCQk8dGl0bGUgaWQ9InRpdGxlNDgzOSI+U2hlZXQuMTU2MDwvdGl0bGU+JiN4YTsJCQk8cGF0aCBpZD0icGF0aDQ4NDEiIGlua3NjYXBlOmNvbm5lY3Rvci1jdXJ2YXR1cmU9IjAiIHN0eWxlPSJmaWxsLXJ1bGU6ZXZlbm9kZDtjbGlwLXJ1bGU6ZXZlbm9kZDtmaWxsOiMwMEIwRjA7IiBkPSJNMCw0MS41OSAgICAgYzAtMS42LDEuMTYtMi44OSwyLjU4LTIuODljMS40MywwLDIuNTksMS4yOSwyLjU5LDIuODlzLTEuMTYsMi44OS0yLjU5LDIuODlDMS4xNiw0NC40OCwwLDQzLjE5LDAsNDEuNTl6Ii8+JiN4YTsJCTwvZz4mI3hhOwkJPGcgaWQ9InNoYXBlMTU2MS02IiB0cmFuc2Zvcm09InRyYW5zbGF0ZSgyLjUzOTEyLC0zMy42NTA1KSI+JiN4YTsJCQk8dGl0bGUgaWQ9InRpdGxlNDg0NCI+U2hlZXQuMTU2MTwvdGl0bGU+JiN4YTsJCQk8cGF0aCBpZD0icGF0aDQ4NDYiIGlua3NjYXBlOmNvbm5lY3Rvci1jdXJ2YXR1cmU9IjAiIHN0eWxlPSJmaWxsLXJ1bGU6ZXZlbm9kZDtjbGlwLXJ1bGU6ZXZlbm9kZDtmaWxsOiNGRkZGRkY7IiBkPSJNMS4wNyw0Mi44OCAgICAgbDAuODQtMC45NGgtMC43TDAsNDMuMjRsMS4yMSwxLjI0aDAuN2wtMC44NC0wLjk1aDEuOTl2LTAuNjVMMS4wNyw0Mi44OHoiLz4mI3hhOwkJPC9nPiYjeGE7CQk8ZyBpZD0ic2hhcGUxNTYyLTgiIHRyYW5zZm9ybT0idHJhbnNsYXRlKDEuMzEzMzQsLTEuOTI3ODkpIj4mI3hhOwkJCTx0aXRsZSBpZD0idGl0bGU0ODQ5Ij5TaGVldC4xNTYyPC90aXRsZT4mI3hhOwkJCTxwYXRoIGlkPSJwYXRoNDg1MSIgaW5rc2NhcGU6Y29ubmVjdG9yLWN1cnZhdHVyZT0iMCIgc3R5bGU9ImZpbGwtcnVsZTpldmVub2RkO2NsaXAtcnVsZTpldmVub2RkO2ZpbGw6IzU5QjREOTsiIGQ9Ik0wLDE1LjQ3ICAgICB2MjkuMDFoNDguNjhWMTUuNDdIMHoiLz4mI3hhOwkJPC9nPiYjeGE7CQk8ZyBpZD0ic2hhcGUxNTYzLTEwIiB0cmFuc2Zvcm09InRyYW5zbGF0ZSg3LjYxNzM1LC0zMy40NzUyKSI+JiN4YTsJCQk8dGl0bGUgaWQ9InRpdGxlNDg1NCI+U2hlZXQuMTU2MzwvdGl0bGU+JiN4YTsJCQk8cGF0aCBpZD0icGF0aDQ4NTYiIGlua3NjYXBlOmNvbm5lY3Rvci1jdXJ2YXR1cmU9IjAiIHN0eWxlPSJmaWxsLXJ1bGU6ZXZlbm9kZDtjbGlwLXJ1bGU6ZXZlbm9kZDtmaWxsOiNGRkZGRkY7IiBkPSJNMCw0MS4xNSAgICAgdjMuMzNoNDIuMDN2LTMuMzNIMHoiLz4mI3hhOwkJPC9nPiYjeGE7CQk8ZyBpZD0ic2hhcGUxNTY0LTEyIiB0cmFuc2Zvcm09InRyYW5zbGF0ZSg2LjE5MzA1LC05LjM0NTE1KSI+JiN4YTsJCQk8dGl0bGUgaWQ9InRpdGxlNDg1OSI+QVBJIE1hbmFnZW1lbnQ8L3RpdGxlPiYjeGE7CQkJPHBhdGggaWQ9InBhdGg0ODYxIiBpbmtzY2FwZTpjb25uZWN0b3ItY3VydmF0dXJlPSIwIiBzdHlsZT0iZmlsbC1ydWxlOmV2ZW5vZGQ7Y2xpcC1ydWxlOmV2ZW5vZGQ7ZmlsbDojRkZGRkZGOyIgZD0iICAgICBNMTMuOTUsMzYuNzJjMC4wMy0wLjIyLDAuMDMtMC40OCwwLjAzLTAuNzFjMC0yLjc3LTIuMjgtNS4wOS01LjA1LTUuMDlIOC45Yy0xLjk5LDAtMy43OCwxLjI0LTQuNiwzLjAzICAgICBjLTAuMjMtMC4wMy0wLjQ1LTAuMDMtMC42OC0wLjAzQzEuNiwzMy45MiwwLDM1LjU1LDAsMzcuNTdjMCwxLjk5LDEuNjMsMy42MiwzLjY1LDMuNjJoMS44NmMwLjA2LDAuMjYsMC4yMywwLjQ5LDAuNDIsMC42OCAgICAgYzAuNjUsMC42NSwxLjczLDAuNjUsMi4zOCwwczAuNjUtMS42OSwwLTIuMzRjLTAuNjUtMC42Ni0xLjctMC42Ni0yLjM4LDBjLTAuMTYsMC4xNi0wLjI5LDAuMzUtMC4zNiwwLjU1bC0xLjg5LTAuMDMgICAgIGMtMS40LDAtMi41MS0xLjExLTIuNTQtMi40OGMwLTEuNCwxLjE0LTIuNTEsMi41NC0yLjUxYzAuMjYsMCwwLjU2LDAuMDcsMC44MiwwLjEzbDAuNTIsMC4ybDAuMTYtMC41MiAgICAgYzAuNTItMS42MywyLjA1LTIuNzEsMy43NS0yLjcxYzIuMTgsMCwzLjk0LDEuNzYsMy45NCwzLjk0YzAsMC4zNi0wLjAzLDAuNzItMC4xMywxLjA1bC0wLjIzLDAuNzhsMC44Mi0wLjFjMC4wNiwwLDAuMSwwLDAuMTMsMCAgICAgYzAuNjIsMCwxLjE0LDAuNTIsMS4xNCwxLjE0YzAsMC41OS0wLjQzLDEuMDgtMS4wMSwxLjE0YzAsMC0yLjcxLDAuMDQtMi44NywwLjA0Yy0wLjEzLTAuNzUtMC40OS0xLjQ3LTEuMDQtMi4wMiAgICAgYy0wLjY5LTAuNzItMS42My0xLjExLTIuNjQtMS4xMWMtMC42OSwwLTEuMzQsMC4xOS0xLjkyLDAuNTJsMC41OCwwLjk0YzAuMzktMC4yNiwwLjg4LTAuMzksMS4zNy0wLjM5ICAgICBjMC42OSwwLDEuMzcsMC4yNiwxLjg2LDAuNzhjMC40OSwwLjQ5LDAuNzgsMS4xNSwwLjc4LDEuODZjMCwwLjY5LTAuMjYsMS4zNy0wLjc4LDEuODZjLTAuNDksMC40OS0xLjE0LDAuNzgtMS44NiwwLjc4ICAgICBjLTAuNDksMC0wLjk4LTAuMTMtMS4zNy0wLjM5bC0wLjU4LDAuOTVjMC41OCwwLjM1LDEuMjcsMC41NSwxLjk1LDAuNTVjMS4wMSwwLDEuOTItMC4zOSwyLjY0LTEuMTEgICAgIGMwLjU5LTAuNTksMC45NS0xLjMzLDEuMDQtMi4xMmMwLjEzLDAsMi44Ny0wLjAzLDIuODctMC4wM2gwLjAzYzEuMTgtMC4xLDIuMDYtMS4wNywyLjA2LTIuMjUgICAgIEMxNS43NCwzNy44MywxNC45OSwzNi45MiwxMy45NSwzNi43MnoiLz4mI3hhOwkJPC9nPiYjeGE7CQk8ZyBpZD0ic2hhcGUxNTY1LTE0IiB0cmFuc2Zvcm09InRyYW5zbGF0ZSgyNy42MTU3LC04LjI1MDA3KSI+JiN4YTsJCQk8dGl0bGUgaWQ9InRpdGxlNDg2NCI+U2hlZXQuMTU2NTwvdGl0bGU+JiN4YTsJCQk8cGF0aCBpZD0icGF0aDQ4NjYiIGlua3NjYXBlOmNvbm5lY3Rvci1jdXJ2YXR1cmU9IjAiIHN0eWxlPSJmaWxsLXJ1bGU6ZXZlbm9kZDtjbGlwLXJ1bGU6ZXZlbm9kZDtmaWxsOiNGRkZGRkY7IiBkPSIgICAgIE0xNS41NiwzNy4zMmMtMS4xNy0wLjM2LTEuMTctMC4zNi0xLjE3LTAuMzZjMC4wMy0wLjEzLDAuMDMtMC4yNCwwLjAzLTAuMzVjMC0wLjE0LDAtMC4yNS0wLjAzLTAuMzYgICAgIGMxLjE3LTAuMzksMS4xNy0wLjM5LDEuMTctMC4zOWMwLjExLTAuMDMsMC4xOC0wLjE0LDAuMTgtMC4yNGMtMC4wMy0wLjIyLTAuMDctMC4zOS0wLjEtMC41N2MwLTAuMTEtMC4xMS0wLjIxLTAuMjEtMC4yMSAgICAgYy0wLjA0LDAtMC4wNCwwLTAuMDQsMGMtMS4yMSwwLjA0LTEuMjEsMC4wNC0xLjIxLDAuMDRjLTAuMDctMC4yNi0wLjE0LTAuNDctMC4yMS0wLjY4YzAuOTYtMC43MSwwLjk2LTAuNzEsMC45Ni0wLjcxICAgICBjMC4xLTAuMDcsMC4xNC0wLjIxLDAuMS0wLjMyYy0wLjA3LTAuMTQtMC4xOC0wLjMyLTAuMjgtMC41Yy0wLjAzLTAuMS0wLjE4LTAuMTQtMC4yOS0wLjFjLTEuMTcsMC4zOS0xLjE3LDAuMzktMS4xNywwLjM5ICAgICBjLTAuMS0wLjIyLTAuMjUtMC4zOS0wLjM5LTAuNTdjMC43Mi0wLjk1LDAuNzItMC45NSwwLjcyLTAuOTVjMC4wNi0wLjExLDAuMDMtMC4yNi0wLjA0LTAuMzNjLTAuMTUtMC4xNC0wLjI5LTAuMjgtMC40My0wLjQyICAgICBjLTAuMDctMC4wNy0wLjIxLTAuMDctMC4zMiwwYy0wLjk2LDAuNzEtMC45NiwwLjcxLTAuOTYsMC43MWMtMC4xNy0wLjExLTAuMzYtMC4yNS0wLjU3LTAuMzVjMC40LTEuMTQsMC40LTEuMTQsMC40LTEuMTQgICAgIGMwLjAzLTAuMTQsMC0wLjI1LTAuMTEtMC4zMmMtMC4xOC0wLjA3LTAuNC0wLjE4LTAuNTctMC4yNWMtMC4xMS0wLjA0LTAuMjIsMC0wLjI4LDAuMDdjLTAuNzIsMC45OS0wLjcyLDAuOTktMC43MiwwLjk5ICAgICBjLTAuMjEtMC4wMy0wLjQyLTAuMS0wLjYtMC4xM2MwLTEuMjEsMC0xLjIxLDAtMS4yMWMwLTAuMTUtMC4xMS0wLjI1LTAuMjEtMC4yNWMtMC4yMi0wLjA0LTAuMzktMC4wNy0wLjYxLTAuMDcgICAgIGMtMC4xLTAuMDQtMC4yMSwwLjAzLTAuMjQsMC4xNGMtMC40LDEuMTctMC40LDEuMTctMC40LDEuMTdjLTAuMTcsMC0wLjM5LDAtMC41NiwwLjAzYy0wLjM5LTEuMTMtMC4zOS0xLjEzLTAuMzktMS4xMyAgICAgYy0wLjA0LTAuMTQtMC4xNS0wLjIxLTAuMjUtMC4xOGMtMC4yMiwwLjA0LTAuNDIsMC4wNy0wLjY0LDAuMTFjLTAuMTEsMC4wMy0wLjE4LDAuMTQtMC4xOCwwLjI1YzAsMS4yNCwwLDEuMjQsMCwxLjI0ICAgICBjLTAuMTgsMC4wMy0wLjM1LDAuMS0wLjUzLDAuMThjLTAuNzEtMS0wLjcxLTEtMC43MS0xYy0wLjA4LTAuMDYtMC4xOC0wLjEtMC4yOC0wLjA2Yy0wLjIyLDAuMS0wLjQsMC4yLTAuNjEsMC4zMSAgICAgYy0wLjA3LDAuMDgtMC4xNCwwLjE4LTAuMSwwLjI4YzAuMzksMS4xNywwLjM5LDEuMTcsMC4zOSwxLjE3Yy0wLjE1LDAuMTEtMC4yOSwwLjIyLTAuMzksMC4zMmMtMS0wLjcxLTEtMC43MS0xLTAuNzEgICAgIGMtMC4wNy0wLjA3LTAuMjEtMC4wNy0wLjI5LDBjLTAuMTcsMC4xOS0wLjMyLDAuMzItMC40OSwwLjVjLTAuMDcsMC4wOC0wLjA3LDAuMjEsMCwwLjMyYzAuNzEsMC45NiwwLjcxLDAuOTYsMC43MSwwLjk2ICAgICBjLTAuMDcsMC4xNC0wLjE4LDAuMjgtMC4yOCwwLjQyYy0xLjE0LTAuMzktMS4xNC0wLjM5LTEuMTQtMC4zOWMtMC4xMS0wLjAzLTAuMjIsMC0wLjI5LDAuMTFjLTAuMSwwLjIyLTAuMjEsMC40My0wLjMyLDAuNjQgICAgIGMtMC4wMywwLjEsMCwwLjIxLDAuMTEsMC4yOGMwLjk5LDAuNzEsMC45OSwwLjcxLDAuOTksMC43MWMtMC4wNywwLjE1LTAuMSwwLjI4LTAuMTMsMC40N2MtMS4yMSwwLTEuMjEsMC0xLjIxLDBsMCwwICAgICBjLTAuMTUsMC0wLjI1LDAuMDYtMC4yNSwwLjE3Yy0wLjA3LDAuMjItMC4xMSwwLjQ2LTAuMTEsMC42N2MtMC4wNCwwLjE0LDAuMDQsMC4yNSwwLjE4LDAuMjljMS4xMywwLjM1LDEuMTMsMC4zNSwxLjEzLDAuMzUgICAgIGMwLDAuMDgsMCwwLjE4LDAsMC4yNXMwLDAuMTQsMCwwLjIyYy0xLjEzLDAuMzktMS4xMywwLjM5LTEuMTMsMC4zOWMtMC4xNCwwLjAzLTAuMjIsMC4xMy0wLjE4LDAuMjRjMCwwLjIxLDAuMDQsMC40NiwwLjExLDAuNjcgICAgIGMwLDAuMTUsMC4xLDAuMjIsMC4yNSwwLjIybDAsMGMxLjIxLDAsMS4yMSwwLDEuMjEsMGMwLjAzLDAuMTQsMC4wNiwwLjI4LDAuMTMsMC40M2MtMC45OSwwLjctMC45OSwwLjctMC45OSwwLjcgICAgIGMtMC4xMSwwLjA4LTAuMTQsMC4yMS0wLjExLDAuMzJjMC4xMSwwLjIxLDAuMjIsMC40MywwLjMyLDAuNmMwLjA3LDAuMTEsMC4xOCwwLjE1LDAuMjksMC4xMWMxLjE0LTAuMzUsMS4xNC0wLjM1LDEuMTQtMC4zNSAgICAgYzAuMSwwLjE0LDAuMjEsMC4yNCwwLjI4LDAuMzljLTAuNzEsMC45OS0wLjcxLDAuOTktMC43MSwwLjk5Yy0wLjA3LDAuMDctMC4wNywwLjIxLDAsMC4yOUMyLjEsNDIsMi4yNSw0Mi4xOCwyLjQyLDQyLjMyICAgICBjMC4wOCwwLjA3LDAuMjIsMC4xLDAuMjksMC4wM2MxLTAuNzEsMS0wLjcxLDEtMC43MWMwLjEsMC4xMSwwLjI0LDAuMjIsMC4zOSwwLjI5QzMuNzEsNDMuMSwzLjcxLDQzLjEsMy43MSw0My4xICAgICBjLTAuMDQsMC4xLDAuMDMsMC4yNSwwLjEsMC4yOWMwLjIxLDAuMTMsMC4zOSwwLjI0LDAuNjEsMC4zMWMwLjEsMC4wOCwwLjIsMC4wNCwwLjI4LTAuMDdjMC43MS0wLjk2LDAuNzEtMC45NiwwLjcxLTAuOTYgICAgIGMwLjE4LDAuMDcsMC4zNSwwLjExLDAuNTMsMC4xOGMwLDEuMjEsMCwxLjIxLDAsMS4yMWMwLDAuMTQsMC4wNywwLjIxLDAuMTgsMC4yNGMwLjIyLDAuMDgsMC40MiwwLjExLDAuNjQsMC4xMSAgICAgYzAuMSwwLjA0LDAuMjEtMC4wMywwLjI1LTAuMTRjMC4zOS0xLjE0LDAuMzktMS4xNCwwLjM5LTEuMTRjMC4xNywwLDAuMzksMCwwLjU2LDBjMC40LDEuMTcsMC40LDEuMTcsMC40LDEuMTcgICAgIGMwLjAzLDAuMTEsMC4xLDAuMTgsMC4yMSwwLjE4SDguNmMwLjIyLTAuMDMsMC4zOS0wLjAzLDAuNjEtMC4wN2MwLjEtMC4wMywwLjIxLTAuMTQsMC4yMS0wLjI0YzAtMS4yMSwwLTEuMjEsMC0xLjIxICAgICBjMC4xOC0wLjA0LDAuMzktMC4xMSwwLjYtMC4xOGMwLjcyLDEsMC43MiwxLDAuNzIsMWMwLjA2LDAuMSwwLjE3LDAuMTMsMC4yOCwwLjA2YzAuMTctMC4wNiwwLjM5LTAuMTQsMC41Ny0wLjI0ICAgICBjMC4xMS0wLjA4LDAuMTQtMC4xOCwwLjExLTAuMjljLTAuNC0xLjE3LTAuNC0xLjE3LTAuNC0xLjE3YzAuMjEtMC4xMSwwLjQtMC4yMSwwLjU3LTAuMzVjMC45NiwwLjcxLDAuOTYsMC43MSwwLjk2LDAuNzEgICAgIGMwLjExLDAuMDcsMC4yNSwwLjA3LDAuMzIsMGMwLjE0LTAuMTUsMC4yOC0wLjI1LDAuNDMtMC4zOWMwLjA3LTAuMTEsMC4xLTAuMjUsMC4wNC0wLjMyYy0wLjcyLTEtMC43Mi0xLTAuNzItMSAgICAgYzAuMTQtMC4xNywwLjI5LTAuMzUsMC4zOS0wLjUyYzEuMTcsMC4zOSwxLjE3LDAuMzksMS4xNywwLjM5YzAuMTEsMC4wMywwLjI2LTAuMDQsMC4yOS0wLjE1YzAuMS0wLjE3LDAuMjEtMC4zMiwwLjI4LTAuNSAgICAgYzAuMDQtMC4xLDAtMC4yMS0wLjEtMC4yOGMtMC45Ni0wLjcxLTAuOTYtMC43MS0wLjk2LTAuNzFjMC4wNy0wLjI0LDAuMTQtMC40NiwwLjIxLTAuNjdjMS4yMSwwLDEuMjEsMCwxLjIxLDAgICAgIGMwLjE0LDAsMC4yNS0wLjA3LDAuMjUtMC4yMmMwLjAzLTAuMTcsMC4wNy0wLjM1LDAuMS0wLjUyQzE1Ljc0LDM3LjQ2LDE1LjY3LDM3LjM1LDE1LjU2LDM3LjMyeiBNNS44MywzNi4xMSAgICAgYy0wLjAzLDAuMTQtMC4wMywwLjI1LDAuMDQsMC4zNmMwLjA3LDAuMSwwLjE3LDAuMTQsMC4zMiwwLjE0YzEuMjUsMCwxLjI1LDAsMS4yNSwwYy0xLjQsMy40LTEuNCwzLjQtMS40LDMuNCAgICAgYy0wLjAzLDAuMDQtMC4xLDAuMTgsMCwwLjI5YzAuMDQsMC4wNywwLjExLDAuMTQsMC4yMiwwLjE0YzAuMTEsMCwwLjE4LTAuMDcsMC4yNS0wLjE0YzQuNjEtNS4yNSw0LjYxLTUuMjUsNC42MS01LjI1ICAgICBjMC4xMS0wLjE0LDAuMTUtMC4yNSwwLjA3LTAuMzljLTAuMDMtMC4xLTAuMTMtMC4xOC0wLjMxLTAuMThsMCwwYy0xLjUzLDAtMS41MywwLTEuNTMsMGMxLjEzLTEuOTEsMS4xMy0xLjkxLDEuMTMtMS45MSAgICAgYzEuMzYsMC44OCwyLjIxLDIuNDEsMi4yMSw0LjA0YzAsMi42Mi0yLjE3LDQuNzktNC44Myw0Ljc5Yy0yLjYzLDAtNC43OS0yLjE3LTQuNzktNC43OWMwLTIuNTIsMS45MS00LjU4LDQuNC00Ljc4TDUuODMsMzYuMTF6Ii8+JiN4YTsJCTwvZz4mI3hhOwk8L2c+JiN4YTs8L2c+JiN4YTs8L3N2Zz4=;" vertex="1" parent="ofyRJqEsxBPMG2T8lIRP-81">
          <mxGeometry x="886.94" y="242" width="65.38" height="50" as="geometry" />
        </mxCell>
        <mxCell id="ofyRJqEsxBPMG2T8lIRP-47" value="" style="verticalLabelPosition=bottom;html=1;verticalAlign=top;align=center;strokeColor=none;fillColor=#00BEF2;shape=mxgraph.azure.azure_subscription;" vertex="1" parent="ofyRJqEsxBPMG2T8lIRP-81">
          <mxGeometry x="10" width="50" height="35" as="geometry" />
        </mxCell>
        <mxCell id="ofyRJqEsxBPMG2T8lIRP-48" value="assign &#xa;unique &#xa;request &#xa;id &amp; return&#xa;HTTP 200 response&#xa;to Firelight" style="shape=image;verticalLabelPosition=bottom;labelBackgroundColor=#ffffff;verticalAlign=top;aspect=fixed;imageAspect=0;image=data:image/svg+xml,PHN2ZyB4bWxuczpjYz0iaHR0cDovL2NyZWF0aXZlY29tbW9ucy5vcmcvbnMjIiB4bWxuczpkYz0iaHR0cDovL3B1cmwub3JnL2RjL2VsZW1lbnRzLzEuMS8iIHhtbG5zOmlua3NjYXBlPSJodHRwOi8vd3d3Lmlua3NjYXBlLm9yZy9uYW1lc3BhY2VzL2lua3NjYXBlIiB4bWxuczpyZGY9Imh0dHA6Ly93d3cudzMub3JnLzE5OTkvMDIvMjItcmRmLXN5bnRheC1ucyMiIHhtbG5zOnNvZGlwb2RpPSJodHRwOi8vc29kaXBvZGkuc291cmNlZm9yZ2UubmV0L0RURC9zb2RpcG9kaS0wLmR0ZCIgeG1sbnM6c3ZnPSJodHRwOi8vd3d3LnczLm9yZy8yMDAwL3N2ZyIgeG1sbnM9Imh0dHA6Ly93d3cudzMub3JnLzIwMDAvc3ZnIiB4bWxuczp4bGluaz0iaHR0cDovL3d3dy53My5vcmcvMTk5OS94bGluayIgdmVyc2lvbj0iMS4xIiBpZD0ic3ZnNDkxMzUiIGlua3NjYXBlOnZlcnNpb249IjAuOTIuMyAoMjQwNTU0NiwgMjAxOC0wMy0xMSkiIHNvZGlwb2RpOmRvY25hbWU9Impzb24uc3ZnIiB4PSIwcHgiIHk9IjBweCIgdmlld0JveD0iMCAwIDI2LjcyIDM1LjE1IiBzdHlsZT0iZW5hYmxlLWJhY2tncm91bmQ6bmV3IDAgMCAyNi43MiAzNS4xNTsiIHhtbDpzcGFjZT0icHJlc2VydmUiPiYjeGE7PHNvZGlwb2RpOm5hbWVkdmlldyBib3JkZXJjb2xvcj0iIzY2NjY2NiIgYm9yZGVyb3BhY2l0eT0iMSIgZml0LW1hcmdpbi1ib3R0b209IjAiIGZpdC1tYXJnaW4tbGVmdD0iMCIgZml0LW1hcmdpbi1yaWdodD0iMCIgZml0LW1hcmdpbi10b3A9IjAiIGdyaWR0b2xlcmFuY2U9IjEwIiBndWlkZXRvbGVyYW5jZT0iMTAiIGlkPSJuYW1lZHZpZXc0OTEzNyIgaW5rc2NhcGU6Y3VycmVudC1sYXllcj0ic3ZnNDkxMzUiIGlua3NjYXBlOmN4PSIxNy44MTIxNTYiIGlua3NjYXBlOmN5PSIyMy40MzU4OTYiIGlua3NjYXBlOnBhZ2VvcGFjaXR5PSIwIiBpbmtzY2FwZTpwYWdlc2hhZG93PSIyIiBpbmtzY2FwZTp3aW5kb3ctaGVpZ2h0PSIxMDE3IiBpbmtzY2FwZTp3aW5kb3ctbWF4aW1pemVkPSIxIiBpbmtzY2FwZTp3aW5kb3ctd2lkdGg9IjE5MjAiIGlua3NjYXBlOndpbmRvdy14PSItOCIgaW5rc2NhcGU6d2luZG93LXk9Ii04IiBpbmtzY2FwZTp6b29tPSIxMS40MDYwODkiIG9iamVjdHRvbGVyYW5jZT0iMTAiIHBhZ2Vjb2xvcj0iI2ZmZmZmZiIgc2hvd2dyaWQ9ImZhbHNlIj4mI3hhOwk8L3NvZGlwb2RpOm5hbWVkdmlldz4mI3hhOzxnIGlkPSJnNDkxMzMiIHRyYW5zZm9ybT0idHJhbnNsYXRlKC0xMC45Mjg2LC0xMC45MzE0KSI+JiN4YTsJPHRpdGxlIGlkPSJ0aXRsZTQ5MDYxIj5QYWdlLTE8L3RpdGxlPiYjeGE7CTxnIGlkPSJncm91cDM5ODgtMSIgdHJhbnNmb3JtPSJ0cmFuc2xhdGUoMTAuOTI4NiwtMTAuOTI4NikiPiYjeGE7CQk8dGl0bGUgaWQ9InRpdGxlNDkwNjMiPkpTT04uMjY2PC90aXRsZT4mI3hhOwkJPGcgaWQ9Imdyb3VwMzk4OS0yIj4mI3hhOwkJCTx0aXRsZSBpZD0idGl0bGU0OTA2NSI+SlM8L3RpdGxlPiYjeGE7CQkJPGcgaWQ9Imdyb3VwMzk5MC0zIj4mI3hhOwkJCQk8dGl0bGUgaWQ9InRpdGxlNDkwNjciPlNoZWV0LjM5OTA8L3RpdGxlPiYjeGE7CQkJCTxnIGlkPSJzaGFwZTM5OTEtNCI+JiN4YTsJCQkJCTx0aXRsZSBpZD0idGl0bGU0OTA2OSI+U2hlZXQuMzk5MTwvdGl0bGU+JiN4YTsJCQkJCTxwYXRoIGlkPSJwYXRoNDkwNzEiIGlua3NjYXBlOmNvbm5lY3Rvci1jdXJ2YXR1cmU9IjAiIHN0eWxlPSJmaWxsOiNFOUU5RTA7IiBkPSJNMTguOTQsMjEuODZIMC45MWMtMC41LDAtMC45MSwwLjQxLTAuOTEsMS4yMSAgICAgICB2MzMuMzFjMCwwLjIyLDAuNDEsMC42MywwLjkxLDAuNjNoMjQuOWMwLjUsMCwwLjkxLTAuNDEsMC45MS0wLjYzVjMwYzAtMC40My0wLjA2LTAuNTctMC4xNi0wLjY4bC03LjIzLTcuMyAgICAgICBDMTkuMjMsMjEuOTIsMTkuMDksMjEuODYsMTguOTQsMjEuODZ6Ii8+JiN4YTsJCQkJPC9nPiYjeGE7CQkJCTxnIGlkPSJzaGFwZTM5OTItNiIgdHJhbnNmb3JtPSJ0cmFuc2xhdGUoMTkuMjYyLC0yNy42MTkzKSI+JiN4YTsJCQkJCTx0aXRsZSBpZD0idGl0bGU0OTA3NCI+U2hlZXQuMzk5MjwvdGl0bGU+JiN4YTsJCQkJCTxwYXRoIGlkPSJwYXRoNDkwNzYiIGlua3NjYXBlOmNvbm5lY3Rvci1jdXJ2YXR1cmU9IjAiIHN0eWxlPSJmaWxsOiNEOUQ3Q0E7IiBkPSJNMCw0OS41N3Y3LjQ0aDcuMzZMMCw0OS41N3oiLz4mI3hhOwkJCQk8L2c+JiN4YTsJCQkJPGcgaWQ9InNoYXBlMzk5My04Ij4mI3hhOwkJCQkJPHRpdGxlIGlkPSJ0aXRsZTQ5MDc5Ij5TaGVldC4zOTkzPC90aXRsZT4mI3hhOwkJCQkJPHBhdGggaWQ9InBhdGg0OTA4MSIgaW5rc2NhcGU6Y29ubmVjdG9yLWN1cnZhdHVyZT0iMCIgc3R5bGU9ImZpbGw6I0U5QUM0NzsiIGQ9Ik0yNS44MSw1Ny4wMUgwLjkxQzAuNDEsNTcuMDEsMCw1Ni42LDAsNTYuMDkgICAgICAgdi05Ljc1aDI2LjcydjkuNzVDMjYuNzIsNTYuNiwyNi4zMSw1Ny4wMSwyNS44MSw1Ny4wMXoiLz4mI3hhOwkJCQk8L2c+JiN4YTsJCQkJPGcgaWQ9Imdyb3VwMzk5NC0xMCIgdHJhbnNmb3JtPSJ0cmFuc2xhdGUoNC45NzA4NSwtMTUuMDY1MSkiPiYjeGE7CQkJCQk8dGl0bGUgaWQ9InRpdGxlNDkwODQiPlNoZWV0LjM5OTQ8L3RpdGxlPiYjeGE7CQkJCQk8ZyBpZD0ic2hhcGUzOTk1LTExIj4mI3hhOwkJCQkJCTx0aXRsZSBpZD0idGl0bGU0OTA4NiI+U2hlZXQuMzk5NTwvdGl0bGU+JiN4YTsJCQkJCQk8cGF0aCBpZD0icGF0aDQ5MDg4IiBpbmtzY2FwZTpjb25uZWN0b3ItY3VydmF0dXJlPSIwIiBzdHlsZT0iZmlsbDojRTlBQzQ3OyIgZD0iTTMuMTEsNDguODV2LTIuNTEgICAgICAgIGMwLTAuMzUsMC4yOC0wLjYzLDAuNjItMC42M3MwLjYyLTAuMjgsMC42Mi0wLjYzYzAtMC4zNC0wLjI4LTAuNjMtMC42Mi0wLjYzYy0xLjAzLDAtMS44NywwLjg1LTEuODcsMS44OXYyLjUxICAgICAgICBjMCwwLjY5LTAuNTUsMS4yNS0xLjI0LDEuMjVDMC4yOCw1MC4xLDAsNTAuMzksMCw1MC43M2MwLDAuMzUsMC4yOCwwLjYzLDAuNjIsMC42M2MwLjY5LDAsMS4yNCwwLjU2LDEuMjQsMS4yNnYyLjUxICAgICAgICBjMCwxLjAzLDAuODQsMS44OCwxLjg3LDEuODhjMC4zNCwwLDAuNjItMC4yOCwwLjYyLTAuNjNjMC0wLjM1LTAuMjgtMC42My0wLjYyLTAuNjNzLTAuNjItMC4yOC0wLjYyLTAuNjJ2LTIuNTEgICAgICAgIGMwLTAuNzYtMC4zNC0xLjQzLTAuODYtMS44OUMyLjc3LDUwLjI3LDMuMTEsNDkuNiwzLjExLDQ4Ljg1eiIvPiYjeGE7CQkJCQk8L2c+JiN4YTsJCQkJCTxnIGlkPSJzaGFwZTM5OTYtMTMiIHRyYW5zZm9ybT0idHJhbnNsYXRlKDcuMTQ1NTksLTcuNTMyNTQpIj4mI3hhOwkJCQkJCTx0aXRsZSBpZD0idGl0bGU0OTA5MSI+U2hlZXQuMzk5NjwvdGl0bGU+JiN4YTsJCQkJCQk8ZWxsaXBzZSBpZD0iZWxsaXBzZTQ5MDkzIiBzdHlsZT0iZmlsbDojRTlBQzQ3OyIgY3g9IjAuOTMiIGN5PSI1Ni4wNyIgcng9IjAuOTMiIHJ5PSIwLjk0Ii8+JiN4YTsJCQkJCTwvZz4mI3hhOwkJCQkJPGcgaWQ9InNoYXBlMzk5Ny0xNSIgdHJhbnNmb3JtPSJ0cmFuc2xhdGUoMTEuODA1OCkiPiYjeGE7CQkJCQkJPHRpdGxlIGlkPSJ0aXRsZTQ5MDk2Ij5TaGVldC4zOTk3PC90aXRsZT4mI3hhOwkJCQkJCTxwYXRoIGlkPSJwYXRoNDkwOTgiIGlua3NjYXBlOmNvbm5lY3Rvci1jdXJ2YXR1cmU9IjAiIHN0eWxlPSJmaWxsOiNFOUFDNDc7IiBkPSJNMy43Myw1MC4xYy0wLjY5LDAtMS4yNC0wLjU2LTEuMjQtMS4yNSAgICAgICAgdi0yLjUxYzAtMS4wNC0wLjg0LTEuODktMS44Ny0xLjg5QzAuMjgsNDQuNDUsMCw0NC43NCwwLDQ1LjA4YzAsMC4zNSwwLjI4LDAuNjMsMC42MiwwLjYzczAuNjIsMC4yOCwwLjYyLDAuNjN2Mi41MSAgICAgICAgYzAsMC43NSwwLjM0LDEuNDIsMC44NiwxLjg4Yy0wLjUyLDAuNDYtMC44NiwxLjEzLTAuODYsMS44OXYyLjUxYzAsMC4zNC0wLjI4LDAuNjItMC42MiwwLjYyUzAsNTYuMDMsMCw1Ni4zOCAgICAgICAgYzAsMC4zNSwwLjI4LDAuNjMsMC42MiwwLjYzYzEuMDMsMCwxLjg3LTAuODUsMS44Ny0xLjg4di0yLjUxYzAtMC43LDAuNTUtMS4yNiwxLjI0LTEuMjZjMC4zNCwwLDAuNjItMC4yOCwwLjYyLTAuNjMgICAgICAgIEM0LjM1LDUwLjM5LDQuMDcsNTAuMSwzLjczLDUwLjF6Ii8+JiN4YTsJCQkJCTwvZz4mI3hhOwkJCQkJPGcgaWQ9InNoYXBlMzk5OC0xNyIgdHJhbnNmb3JtPSJ0cmFuc2xhdGUoNy40NTYyNywtMS44ODMxNCkiPiYjeGE7CQkJCQkJPHRpdGxlIGlkPSJ0aXRsZTQ5MTAxIj5TaGVldC4zOTk4PC90aXRsZT4mI3hhOwkJCQkJCTxwYXRoIGlkPSJwYXRoNDkxMDMiIGlua3NjYXBlOmNvbm5lY3Rvci1jdXJ2YXR1cmU9IjAiIHN0eWxlPSJmaWxsOiNFOUFDNDc7IiBkPSJNMC42Miw1My44N0MwLjI4LDUzLjg3LDAsNTQuMTUsMCw1NC41djEuODggICAgICAgIGMwLDAuMzUsMC4yOCwwLjYzLDAuNjIsMC42M3MwLjYyLTAuMjgsMC42Mi0wLjYzVjU0LjVDMS4yNCw1NC4xNSwwLjk2LDUzLjg3LDAuNjIsNTMuODd6Ii8+JiN4YTsJCQkJCTwvZz4mI3hhOwkJCQk8L2c+JiN4YTsJCQk8L2c+JiN4YTsJCTwvZz4mI3hhOwkJPGcgaWQ9Imdyb3VwMzk5OS0xOSIgdHJhbnNmb3JtPSJ0cmFuc2xhdGUoMy44MTMzNCwtMi40NTc4MSkiPiYjeGE7CQkJPHRpdGxlIGlkPSJ0aXRsZTQ5MTA5Ij5KU09OLjM2NjY0PC90aXRsZT4mI3hhOwkJCTxnIGlkPSJzaGFwZTQwMDAtMjAiIHRyYW5zZm9ybT0idHJhbnNsYXRlKDAsLTUuMzA5NzJlLTUpIj4mI3hhOwkJCQk8dGl0bGUgaWQ9InRpdGxlNDkxMTEiPlNoZWV0LjQwMDA8L3RpdGxlPiYjeGE7CQkJCTxwYXRoIGlkPSJwYXRoNDkxMTMiIGlua3NjYXBlOmNvbm5lY3Rvci1jdXJ2YXR1cmU9IjAiIHN0eWxlPSJmaWxsOiNGRkZGRkY7IiBkPSJNMy40OCw1MS4xN3Y0LjQzYzAsMC4yNi0wLjA1LDAuNDktMC4xNSwwLjY3ICAgICAgYy0wLjA5LDAuMTgtMC4yMywwLjMzLTAuMzksMC40NGMtMC4xNiwwLjExLTAuMzUsMC4xOS0wLjU3LDAuMjNjLTAuMjEsMC4wNS0wLjQzLDAuMDctMC42NiwwLjA3Yy0wLjExLDAtMC4yNC0wLjAxLTAuMzktMC4wNCAgICAgIGMtMC4xNi0wLjAyLTAuMzEtMC4wNS0wLjQ4LTAuMWMtMC4xNi0wLjA1LTAuMzEtMC4xMS0wLjQ2LTAuMTdDMC4yMyw1Ni42NCwwLjEsNTYuNTcsMCw1Ni40OWwwLjM5LTAuNjIgICAgICBjMC4wNSwwLjAzLDAuMTMsMC4wNywwLjIyLDAuMTFjMC4xLDAuMDQsMC4yLDAuMDcsMC4zMiwwLjExYzAuMTEsMC4wMywwLjIzLDAuMDYsMC4zNSwwLjA5YzAuMTIsMC4wMiwwLjI0LDAuMDMsMC4zNSwwLjAzICAgICAgYzAuMjcsMCwwLjQ5LTAuMDUsMC42NS0wLjE1YzAuMTYtMC4xMSwwLjI1LTAuMjksMC4yNi0wLjU0di00LjM1TDMuNDgsNTEuMTd6Ii8+JiN4YTsJCQk8L2c+JiN4YTsJCQk8ZyBpZD0ic2hhcGU0MDAxLTIyIiB0cmFuc2Zvcm09InRyYW5zbGF0ZSg0Ljc4NDA1LC0wLjAwNzg1ODM4KSI+JiN4YTsJCQkJPHRpdGxlIGlkPSJ0aXRsZTQ5MTE2Ij5TaGVldC40MDAxPC90aXRsZT4mI3hhOwkJCQk8cGF0aCBpZD0icGF0aDQ5MTE4IiBpbmtzY2FwZTpjb25uZWN0b3ItY3VydmF0dXJlPSIwIiBzdHlsZT0iZmlsbDojRkZGRkZGOyIgZD0iTTMuMyw1NS40MmMwLDAuMjEtMC4wNCwwLjQtMC4xMiwwLjYgICAgICBjLTAuMDksMC4xOS0wLjIxLDAuMzYtMC4zNiwwLjUxYy0wLjE2LDAuMTQtMC4zNSwwLjI2LTAuNTcsMC4zNWMtMC4yMywwLjA5LTAuNDksMC4xMy0wLjc4LDAuMTNjLTAuMTIsMC0wLjI1LTAuMDEtMC4zOC0wLjAyICAgICAgYy0wLjEzLTAuMDEtMC4yNi0wLjA0LTAuNC0wLjA3Yy0wLjEzLTAuMDMtMC4yNi0wLjA3LTAuMzgtMC4xMkMwLjE5LDU2Ljc0LDAuMDksNTYuNjgsMCw1Ni42bDAuMTYtMC42NiAgICAgIGMwLjA3LDAuMDQsMC4xNywwLjA4LDAuMjgsMC4xMmMwLjExLDAuMDMsMC4yMiwwLjA3LDAuMzQsMC4xYzAuMTIsMC4wNCwwLjI0LDAuMDYsMC4zNSwwLjA4YzAuMTIsMC4wMywwLjIzLDAuMDQsMC4zNCwwLjA0ICAgICAgYzAuMzEsMCwwLjU1LTAuMDgsMC43Mi0wLjIyYzAuMTYtMC4xNSwwLjI1LTAuMzcsMC4yNS0wLjY2YzAtMC4xNy0wLjA2LTAuMzItMC4xOC0wLjQ0Yy0wLjEyLTAuMTMtMC4yNy0wLjI0LTAuNDQtMC4zNCAgICAgIGMtMC4xOC0wLjEtMC4zNy0wLjItMC41OC0wLjNjLTAuMi0wLjEtMC40LTAuMjItMC41OC0wLjM2Yy0wLjE4LTAuMTMtMC4zMy0wLjI5LTAuNDQtMC40OGMtMC4xMi0wLjE4LTAuMTgtMC40MS0wLjE4LTAuNjkgICAgICBjMC0wLjI1LDAuMDQtMC40OCwwLjE0LTAuNjdjMC4wOS0wLjIsMC4yMS0wLjM2LDAuMzctMC41czAuMzQtMC4yNCwwLjU1LTAuMzFjMC4yMS0wLjA4LDAuNDMtMC4xMSwwLjY2LTAuMTEgICAgICBjMC4yNCwwLDAuNDgsMC4wMiwwLjcyLDAuMDZjMC4yNCwwLjA1LDAuNDMsMC4xMiwwLjU4LDAuMjJDMy4wMyw1MS41NCwzLDUxLjYyLDIuOTYsNTEuN2MtMC4wNSwwLjA4LTAuMDgsMC4xNS0wLjEyLDAuMjIgICAgICBjLTAuMDQsMC4wNy0wLjA3LDAuMTMtMC4wOSwwLjE3Yy0wLjAzLDAuMDUtMC4wNCwwLjA4LTAuMDUsMC4wOGMtMC4wMy0wLjAxLTAuMDYtMC4wMy0wLjEtMC4wNmMtMC4wNC0wLjAzLTAuMS0wLjA1LTAuMTctMC4wOCAgICAgIGMtMC4wNy0wLjAyLTAuMTctMC4wNC0wLjI5LTAuMDVjLTAuMTEtMC4wMS0wLjI3LTAuMDEtMC40NSwwLjAxYy0wLjEsMC4wMS0wLjIsMC4wNC0wLjI5LDAuMDhjLTAuMSwwLjA1LTAuMTgsMC4xMS0wLjI1LDAuMTkgICAgICBjLTAuMDcsMC4wNy0wLjEzLDAuMTUtMC4xNywwLjI0Yy0wLjA0LDAuMDktMC4wNiwwLjE4LTAuMDYsMC4yNmMwLDAuMiwwLjA2LDAuMzcsMC4xNywwLjVjMC4xMiwwLjEyLDAuMjcsMC4yMywwLjQ0LDAuMzMgICAgICBjMC4xOCwwLjA5LDAuMzcsMC4xOSwwLjU4LDAuMjhjMC4yLDAuMDgsMC4zOSwwLjE5LDAuNTcsMC4zMmMwLjE4LDAuMTMsMC4zMywwLjI5LDAuNDQsMC40OUMzLjI0LDU0Ljg3LDMuMyw1NS4xMiwzLjMsNTUuNDJ6Ii8+JiN4YTsJCQk8L2c+JiN4YTsJCQk8ZyBpZD0ic2hhcGU0MDAyLTI0IiB0cmFuc2Zvcm09InRyYW5zbGF0ZSg4LjkzNjUyKSI+JiN4YTsJCQkJPHRpdGxlIGlkPSJ0aXRsZTQ5MTIxIj5TaGVldC40MDAyPC90aXRsZT4mI3hhOwkJCQk8cGF0aCBpZD0icGF0aDQ5MTIzIiBpbmtzY2FwZTpjb25uZWN0b3ItY3VydmF0dXJlPSIwIiBzdHlsZT0iZmlsbDojRkZGRkZGOyIgZD0iTTQuNzQsNTQuMWMwLDAuNDgtMC4wNiwwLjktMC4xOCwxLjI3ICAgICAgYy0wLjEyLDAuMzYtMC4yOSwwLjY2LTAuNTEsMC45MWMtMC4yMSwwLjI0LTAuNDYsMC40Mi0wLjc0LDAuNTRjLTAuMjksMC4xMy0wLjYsMC4xOS0wLjk0LDAuMTlzLTAuNjUtMC4wNi0wLjk0LTAuMTkgICAgICBjLTAuMjgtMC4xMi0wLjUzLTAuMy0wLjc1LTAuNTRjLTAuMjEtMC4yNS0wLjM4LTAuNTUtMC41LTAuOTFDMC4wNiw1NSwwLDU0LjU4LDAsNTQuMWMwLTAuNDgsMC4wNi0wLjksMC4xOC0xLjI2ICAgICAgczAuMjktMC42NywwLjUtMC45MWMwLjIyLTAuMjQsMC40Ny0wLjQyLDAuNzUtMC41NWMwLjI5LTAuMTMsMC42LTAuMTksMC45NC0wLjE5czAuNjUsMC4wNiwwLjk0LDAuMTkgICAgICBjMC4yOCwwLjEzLDAuNTMsMC4zMSwwLjc0LDAuNTVjMC4yMiwwLjI0LDAuMzksMC41NSwwLjUxLDAuOTFDNC42OCw1My4yLDQuNzQsNTMuNjIsNC43NCw1NC4xeiBNMi4zNSw1Ni4yNSAgICAgIGMwLjE5LDAsMC4zNy0wLjAzLDAuNTQtMC4xMWMwLjE3LTAuMDcsMC4zMy0wLjIsMC40Ni0wLjM2YzAuMTQtMC4xNywwLjI1LTAuNCwwLjMyLTAuNjdjMC4wOC0wLjI4LDAuMTItMC42MSwwLjEzLTEuMDEgICAgICBjLTAuMDEtMC4zOS0wLjA1LTAuNzEtMC4xMi0wLjk4Yy0wLjA4LTAuMjctMC4xOC0wLjUtMC4zMS0wLjY3Yy0wLjEzLTAuMTgtMC4yOC0wLjMtMC40NS0wLjM4Yy0wLjE3LTAuMDgtMC4zNC0wLjExLTAuNTMtMC4xMSAgICAgIGMtMC4xOSwwLTAuMzcsMC4wMy0wLjU0LDAuMWMtMC4xOCwwLjA4LTAuMzMsMC4yLTAuNDcsMC4zN2MtMC4xMywwLjE3LTAuMjQsMC4zOS0wLjMyLDAuNjdjLTAuMDcsMC4yNy0wLjExLDAuNi0wLjEyLDEgICAgICBjMC4wMSwwLjM5LDAuMDUsMC43MiwwLjEyLDAuOTljMC4wOCwwLjI3LDAuMTgsMC40OSwwLjMxLDAuNjdjMC4xMywwLjE3LDAuMjgsMC4yOSwwLjQ1LDAuMzdDMS45OCw1Ni4yMSwyLjE2LDU2LjI1LDIuMzUsNTYuMjUgICAgICB6Ii8+JiN4YTsJCQk8L2c+JiN4YTsJCQk8ZyBpZD0ic2hhcGU0MDAzLTI2IiB0cmFuc2Zvcm09InRyYW5zbGF0ZSgxNC45Nzg3LC0wLjAzODM4OTIpIj4mI3hhOwkJCQk8dGl0bGUgaWQ9InRpdGxlNDkxMjYiPlNoZWV0LjQwMDM8L3RpdGxlPiYjeGE7CQkJCTxwYXRoIGlkPSJwYXRoNDkxMjgiIGlua3NjYXBlOmNvbm5lY3Rvci1jdXJ2YXR1cmU9IjAiIHN0eWxlPSJmaWxsOiNGRkZGRkY7IiBkPSJNNC4xMSw1MS4zMnY1LjY5SDMuMTdsLTIuMjMtMy45MnYzLjkySDB2LTUuNjkgICAgICBoMC45NGwyLjIzLDMuOTJ2LTMuOTJMNC4xMSw1MS4zMnoiLz4mI3hhOwkJCTwvZz4mI3hhOwkJPC9nPiYjeGE7CTwvZz4mI3hhOzwvZz4mI3hhOzwvc3ZnPg==;" vertex="1" parent="ofyRJqEsxBPMG2T8lIRP-81">
          <mxGeometry x="253" y="294" width="27" height="35" as="geometry" />
        </mxCell>
        <mxCell id="ofyRJqEsxBPMG2T8lIRP-54" value="" style="group;fillColor=#ffe6cc;strokeColor=#d79b00;fillStyle=solid;gradientColor=none;" vertex="1" connectable="0" parent="ofyRJqEsxBPMG2T8lIRP-81">
          <mxGeometry x="640" width="140" height="140" as="geometry" />
        </mxCell>
        <mxCell id="ofyRJqEsxBPMG2T8lIRP-52" value="" style="whiteSpace=wrap;html=1;aspect=fixed;fillColor=#FFE6CC;" vertex="1" parent="ofyRJqEsxBPMG2T8lIRP-54">
          <mxGeometry width="140" height="140" as="geometry" />
        </mxCell>
        <mxCell id="ofyRJqEsxBPMG2T8lIRP-51" value="FAST 103&amp;nbsp;&lt;div&gt;Submission Endpoint&lt;/div&gt;" style="image;sketch=0;aspect=fixed;html=1;points=[];align=center;fontSize=12;image=img/lib/mscae/DNS.svg;" vertex="1" parent="ofyRJqEsxBPMG2T8lIRP-54">
          <mxGeometry x="45.379999999999995" y="30" width="50" height="50" as="geometry" />
        </mxCell>
        <mxCell id="ofyRJqEsxBPMG2T8lIRP-58" style="edgeStyle=orthogonalEdgeStyle;rounded=0;orthogonalLoop=1;jettySize=auto;html=1;entryX=0.735;entryY=-0.017;entryDx=0;entryDy=0;entryPerimeter=0;" edge="1" parent="ofyRJqEsxBPMG2T8lIRP-81" source="ofyRJqEsxBPMG2T8lIRP-52" target="ofyRJqEsxBPMG2T8lIRP-26">
          <mxGeometry relative="1" as="geometry">
            <mxPoint x="730" y="230" as="targetPoint" />
          </mxGeometry>
        </mxCell>
        <mxCell id="ofyRJqEsxBPMG2T8lIRP-60" value="Response" style="edgeLabel;html=1;align=center;verticalAlign=middle;resizable=0;points=[];" vertex="1" connectable="0" parent="ofyRJqEsxBPMG2T8lIRP-58">
          <mxGeometry x="0.2369" y="3" relative="1" as="geometry">
            <mxPoint as="offset" />
          </mxGeometry>
        </mxCell>
        <mxCell id="ofyRJqEsxBPMG2T8lIRP-63" value="Log API&#xa;Responses with &#xa;Policy Number Reference&#xa;- Success&#xa;- Party Match &#xa;- Error/ Exception&#xa;" style="shape=image;verticalLabelPosition=bottom;labelBackgroundColor=#ffffff;verticalAlign=top;aspect=fixed;imageAspect=0;image=data:image/svg+xml,PHN2ZyB4bWxuczpjYz0iaHR0cDovL2NyZWF0aXZlY29tbW9ucy5vcmcvbnMjIiB4bWxuczpkYz0iaHR0cDovL3B1cmwub3JnL2RjL2VsZW1lbnRzLzEuMS8iIHhtbG5zOmlua3NjYXBlPSJodHRwOi8vd3d3Lmlua3NjYXBlLm9yZy9uYW1lc3BhY2VzL2lua3NjYXBlIiB4bWxuczpyZGY9Imh0dHA6Ly93d3cudzMub3JnLzE5OTkvMDIvMjItcmRmLXN5bnRheC1ucyMiIHhtbG5zOnNvZGlwb2RpPSJodHRwOi8vc29kaXBvZGkuc291cmNlZm9yZ2UubmV0L0RURC9zb2RpcG9kaS0wLmR0ZCIgeG1sbnM6c3ZnPSJodHRwOi8vd3d3LnczLm9yZy8yMDAwL3N2ZyIgeG1sbnM9Imh0dHA6Ly93d3cudzMub3JnLzIwMDAvc3ZnIiB4bWxuczp4bGluaz0iaHR0cDovL3d3dy53My5vcmcvMTk5OS94bGluayIgdmVyc2lvbj0iMS4xIiBpZD0ic3ZnNDkxMzUiIGlua3NjYXBlOnZlcnNpb249IjAuOTIuMyAoMjQwNTU0NiwgMjAxOC0wMy0xMSkiIHNvZGlwb2RpOmRvY25hbWU9Impzb24uc3ZnIiB4PSIwcHgiIHk9IjBweCIgdmlld0JveD0iMCAwIDI2LjcyIDM1LjE1IiBzdHlsZT0iZW5hYmxlLWJhY2tncm91bmQ6bmV3IDAgMCAyNi43MiAzNS4xNTsiIHhtbDpzcGFjZT0icHJlc2VydmUiPiYjeGE7PHNvZGlwb2RpOm5hbWVkdmlldyBib3JkZXJjb2xvcj0iIzY2NjY2NiIgYm9yZGVyb3BhY2l0eT0iMSIgZml0LW1hcmdpbi1ib3R0b209IjAiIGZpdC1tYXJnaW4tbGVmdD0iMCIgZml0LW1hcmdpbi1yaWdodD0iMCIgZml0LW1hcmdpbi10b3A9IjAiIGdyaWR0b2xlcmFuY2U9IjEwIiBndWlkZXRvbGVyYW5jZT0iMTAiIGlkPSJuYW1lZHZpZXc0OTEzNyIgaW5rc2NhcGU6Y3VycmVudC1sYXllcj0ic3ZnNDkxMzUiIGlua3NjYXBlOmN4PSIxNy44MTIxNTYiIGlua3NjYXBlOmN5PSIyMy40MzU4OTYiIGlua3NjYXBlOnBhZ2VvcGFjaXR5PSIwIiBpbmtzY2FwZTpwYWdlc2hhZG93PSIyIiBpbmtzY2FwZTp3aW5kb3ctaGVpZ2h0PSIxMDE3IiBpbmtzY2FwZTp3aW5kb3ctbWF4aW1pemVkPSIxIiBpbmtzY2FwZTp3aW5kb3ctd2lkdGg9IjE5MjAiIGlua3NjYXBlOndpbmRvdy14PSItOCIgaW5rc2NhcGU6d2luZG93LXk9Ii04IiBpbmtzY2FwZTp6b29tPSIxMS40MDYwODkiIG9iamVjdHRvbGVyYW5jZT0iMTAiIHBhZ2Vjb2xvcj0iI2ZmZmZmZiIgc2hvd2dyaWQ9ImZhbHNlIj4mI3hhOwk8L3NvZGlwb2RpOm5hbWVkdmlldz4mI3hhOzxnIGlkPSJnNDkxMzMiIHRyYW5zZm9ybT0idHJhbnNsYXRlKC0xMC45Mjg2LC0xMC45MzE0KSI+JiN4YTsJPHRpdGxlIGlkPSJ0aXRsZTQ5MDYxIj5QYWdlLTE8L3RpdGxlPiYjeGE7CTxnIGlkPSJncm91cDM5ODgtMSIgdHJhbnNmb3JtPSJ0cmFuc2xhdGUoMTAuOTI4NiwtMTAuOTI4NikiPiYjeGE7CQk8dGl0bGUgaWQ9InRpdGxlNDkwNjMiPkpTT04uMjY2PC90aXRsZT4mI3hhOwkJPGcgaWQ9Imdyb3VwMzk4OS0yIj4mI3hhOwkJCTx0aXRsZSBpZD0idGl0bGU0OTA2NSI+SlM8L3RpdGxlPiYjeGE7CQkJPGcgaWQ9Imdyb3VwMzk5MC0zIj4mI3hhOwkJCQk8dGl0bGUgaWQ9InRpdGxlNDkwNjciPlNoZWV0LjM5OTA8L3RpdGxlPiYjeGE7CQkJCTxnIGlkPSJzaGFwZTM5OTEtNCI+JiN4YTsJCQkJCTx0aXRsZSBpZD0idGl0bGU0OTA2OSI+U2hlZXQuMzk5MTwvdGl0bGU+JiN4YTsJCQkJCTxwYXRoIGlkPSJwYXRoNDkwNzEiIGlua3NjYXBlOmNvbm5lY3Rvci1jdXJ2YXR1cmU9IjAiIHN0eWxlPSJmaWxsOiNFOUU5RTA7IiBkPSJNMTguOTQsMjEuODZIMC45MWMtMC41LDAtMC45MSwwLjQxLTAuOTEsMS4yMSAgICAgICB2MzMuMzFjMCwwLjIyLDAuNDEsMC42MywwLjkxLDAuNjNoMjQuOWMwLjUsMCwwLjkxLTAuNDEsMC45MS0wLjYzVjMwYzAtMC40My0wLjA2LTAuNTctMC4xNi0wLjY4bC03LjIzLTcuMyAgICAgICBDMTkuMjMsMjEuOTIsMTkuMDksMjEuODYsMTguOTQsMjEuODZ6Ii8+JiN4YTsJCQkJPC9nPiYjeGE7CQkJCTxnIGlkPSJzaGFwZTM5OTItNiIgdHJhbnNmb3JtPSJ0cmFuc2xhdGUoMTkuMjYyLC0yNy42MTkzKSI+JiN4YTsJCQkJCTx0aXRsZSBpZD0idGl0bGU0OTA3NCI+U2hlZXQuMzk5MjwvdGl0bGU+JiN4YTsJCQkJCTxwYXRoIGlkPSJwYXRoNDkwNzYiIGlua3NjYXBlOmNvbm5lY3Rvci1jdXJ2YXR1cmU9IjAiIHN0eWxlPSJmaWxsOiNEOUQ3Q0E7IiBkPSJNMCw0OS41N3Y3LjQ0aDcuMzZMMCw0OS41N3oiLz4mI3hhOwkJCQk8L2c+JiN4YTsJCQkJPGcgaWQ9InNoYXBlMzk5My04Ij4mI3hhOwkJCQkJPHRpdGxlIGlkPSJ0aXRsZTQ5MDc5Ij5TaGVldC4zOTkzPC90aXRsZT4mI3hhOwkJCQkJPHBhdGggaWQ9InBhdGg0OTA4MSIgaW5rc2NhcGU6Y29ubmVjdG9yLWN1cnZhdHVyZT0iMCIgc3R5bGU9ImZpbGw6I0U5QUM0NzsiIGQ9Ik0yNS44MSw1Ny4wMUgwLjkxQzAuNDEsNTcuMDEsMCw1Ni42LDAsNTYuMDkgICAgICAgdi05Ljc1aDI2LjcydjkuNzVDMjYuNzIsNTYuNiwyNi4zMSw1Ny4wMSwyNS44MSw1Ny4wMXoiLz4mI3hhOwkJCQk8L2c+JiN4YTsJCQkJPGcgaWQ9Imdyb3VwMzk5NC0xMCIgdHJhbnNmb3JtPSJ0cmFuc2xhdGUoNC45NzA4NSwtMTUuMDY1MSkiPiYjeGE7CQkJCQk8dGl0bGUgaWQ9InRpdGxlNDkwODQiPlNoZWV0LjM5OTQ8L3RpdGxlPiYjeGE7CQkJCQk8ZyBpZD0ic2hhcGUzOTk1LTExIj4mI3hhOwkJCQkJCTx0aXRsZSBpZD0idGl0bGU0OTA4NiI+U2hlZXQuMzk5NTwvdGl0bGU+JiN4YTsJCQkJCQk8cGF0aCBpZD0icGF0aDQ5MDg4IiBpbmtzY2FwZTpjb25uZWN0b3ItY3VydmF0dXJlPSIwIiBzdHlsZT0iZmlsbDojRTlBQzQ3OyIgZD0iTTMuMTEsNDguODV2LTIuNTEgICAgICAgIGMwLTAuMzUsMC4yOC0wLjYzLDAuNjItMC42M3MwLjYyLTAuMjgsMC42Mi0wLjYzYzAtMC4zNC0wLjI4LTAuNjMtMC42Mi0wLjYzYy0xLjAzLDAtMS44NywwLjg1LTEuODcsMS44OXYyLjUxICAgICAgICBjMCwwLjY5LTAuNTUsMS4yNS0xLjI0LDEuMjVDMC4yOCw1MC4xLDAsNTAuMzksMCw1MC43M2MwLDAuMzUsMC4yOCwwLjYzLDAuNjIsMC42M2MwLjY5LDAsMS4yNCwwLjU2LDEuMjQsMS4yNnYyLjUxICAgICAgICBjMCwxLjAzLDAuODQsMS44OCwxLjg3LDEuODhjMC4zNCwwLDAuNjItMC4yOCwwLjYyLTAuNjNjMC0wLjM1LTAuMjgtMC42My0wLjYyLTAuNjNzLTAuNjItMC4yOC0wLjYyLTAuNjJ2LTIuNTEgICAgICAgIGMwLTAuNzYtMC4zNC0xLjQzLTAuODYtMS44OUMyLjc3LDUwLjI3LDMuMTEsNDkuNiwzLjExLDQ4Ljg1eiIvPiYjeGE7CQkJCQk8L2c+JiN4YTsJCQkJCTxnIGlkPSJzaGFwZTM5OTYtMTMiIHRyYW5zZm9ybT0idHJhbnNsYXRlKDcuMTQ1NTksLTcuNTMyNTQpIj4mI3hhOwkJCQkJCTx0aXRsZSBpZD0idGl0bGU0OTA5MSI+U2hlZXQuMzk5NjwvdGl0bGU+JiN4YTsJCQkJCQk8ZWxsaXBzZSBpZD0iZWxsaXBzZTQ5MDkzIiBzdHlsZT0iZmlsbDojRTlBQzQ3OyIgY3g9IjAuOTMiIGN5PSI1Ni4wNyIgcng9IjAuOTMiIHJ5PSIwLjk0Ii8+JiN4YTsJCQkJCTwvZz4mI3hhOwkJCQkJPGcgaWQ9InNoYXBlMzk5Ny0xNSIgdHJhbnNmb3JtPSJ0cmFuc2xhdGUoMTEuODA1OCkiPiYjeGE7CQkJCQkJPHRpdGxlIGlkPSJ0aXRsZTQ5MDk2Ij5TaGVldC4zOTk3PC90aXRsZT4mI3hhOwkJCQkJCTxwYXRoIGlkPSJwYXRoNDkwOTgiIGlua3NjYXBlOmNvbm5lY3Rvci1jdXJ2YXR1cmU9IjAiIHN0eWxlPSJmaWxsOiNFOUFDNDc7IiBkPSJNMy43Myw1MC4xYy0wLjY5LDAtMS4yNC0wLjU2LTEuMjQtMS4yNSAgICAgICAgdi0yLjUxYzAtMS4wNC0wLjg0LTEuODktMS44Ny0xLjg5QzAuMjgsNDQuNDUsMCw0NC43NCwwLDQ1LjA4YzAsMC4zNSwwLjI4LDAuNjMsMC42MiwwLjYzczAuNjIsMC4yOCwwLjYyLDAuNjN2Mi41MSAgICAgICAgYzAsMC43NSwwLjM0LDEuNDIsMC44NiwxLjg4Yy0wLjUyLDAuNDYtMC44NiwxLjEzLTAuODYsMS44OXYyLjUxYzAsMC4zNC0wLjI4LDAuNjItMC42MiwwLjYyUzAsNTYuMDMsMCw1Ni4zOCAgICAgICAgYzAsMC4zNSwwLjI4LDAuNjMsMC42MiwwLjYzYzEuMDMsMCwxLjg3LTAuODUsMS44Ny0xLjg4di0yLjUxYzAtMC43LDAuNTUtMS4yNiwxLjI0LTEuMjZjMC4zNCwwLDAuNjItMC4yOCwwLjYyLTAuNjMgICAgICAgIEM0LjM1LDUwLjM5LDQuMDcsNTAuMSwzLjczLDUwLjF6Ii8+JiN4YTsJCQkJCTwvZz4mI3hhOwkJCQkJPGcgaWQ9InNoYXBlMzk5OC0xNyIgdHJhbnNmb3JtPSJ0cmFuc2xhdGUoNy40NTYyNywtMS44ODMxNCkiPiYjeGE7CQkJCQkJPHRpdGxlIGlkPSJ0aXRsZTQ5MTAxIj5TaGVldC4zOTk4PC90aXRsZT4mI3hhOwkJCQkJCTxwYXRoIGlkPSJwYXRoNDkxMDMiIGlua3NjYXBlOmNvbm5lY3Rvci1jdXJ2YXR1cmU9IjAiIHN0eWxlPSJmaWxsOiNFOUFDNDc7IiBkPSJNMC42Miw1My44N0MwLjI4LDUzLjg3LDAsNTQuMTUsMCw1NC41djEuODggICAgICAgIGMwLDAuMzUsMC4yOCwwLjYzLDAuNjIsMC42M3MwLjYyLTAuMjgsMC42Mi0wLjYzVjU0LjVDMS4yNCw1NC4xNSwwLjk2LDUzLjg3LDAuNjIsNTMuODd6Ii8+JiN4YTsJCQkJCTwvZz4mI3hhOwkJCQk8L2c+JiN4YTsJCQk8L2c+JiN4YTsJCTwvZz4mI3hhOwkJPGcgaWQ9Imdyb3VwMzk5OS0xOSIgdHJhbnNmb3JtPSJ0cmFuc2xhdGUoMy44MTMzNCwtMi40NTc4MSkiPiYjeGE7CQkJPHRpdGxlIGlkPSJ0aXRsZTQ5MTA5Ij5KU09OLjM2NjY0PC90aXRsZT4mI3hhOwkJCTxnIGlkPSJzaGFwZTQwMDAtMjAiIHRyYW5zZm9ybT0idHJhbnNsYXRlKDAsLTUuMzA5NzJlLTUpIj4mI3hhOwkJCQk8dGl0bGUgaWQ9InRpdGxlNDkxMTEiPlNoZWV0LjQwMDA8L3RpdGxlPiYjeGE7CQkJCTxwYXRoIGlkPSJwYXRoNDkxMTMiIGlua3NjYXBlOmNvbm5lY3Rvci1jdXJ2YXR1cmU9IjAiIHN0eWxlPSJmaWxsOiNGRkZGRkY7IiBkPSJNMy40OCw1MS4xN3Y0LjQzYzAsMC4yNi0wLjA1LDAuNDktMC4xNSwwLjY3ICAgICAgYy0wLjA5LDAuMTgtMC4yMywwLjMzLTAuMzksMC40NGMtMC4xNiwwLjExLTAuMzUsMC4xOS0wLjU3LDAuMjNjLTAuMjEsMC4wNS0wLjQzLDAuMDctMC42NiwwLjA3Yy0wLjExLDAtMC4yNC0wLjAxLTAuMzktMC4wNCAgICAgIGMtMC4xNi0wLjAyLTAuMzEtMC4wNS0wLjQ4LTAuMWMtMC4xNi0wLjA1LTAuMzEtMC4xMS0wLjQ2LTAuMTdDMC4yMyw1Ni42NCwwLjEsNTYuNTcsMCw1Ni40OWwwLjM5LTAuNjIgICAgICBjMC4wNSwwLjAzLDAuMTMsMC4wNywwLjIyLDAuMTFjMC4xLDAuMDQsMC4yLDAuMDcsMC4zMiwwLjExYzAuMTEsMC4wMywwLjIzLDAuMDYsMC4zNSwwLjA5YzAuMTIsMC4wMiwwLjI0LDAuMDMsMC4zNSwwLjAzICAgICAgYzAuMjcsMCwwLjQ5LTAuMDUsMC42NS0wLjE1YzAuMTYtMC4xMSwwLjI1LTAuMjksMC4yNi0wLjU0di00LjM1TDMuNDgsNTEuMTd6Ii8+JiN4YTsJCQk8L2c+JiN4YTsJCQk8ZyBpZD0ic2hhcGU0MDAxLTIyIiB0cmFuc2Zvcm09InRyYW5zbGF0ZSg0Ljc4NDA1LC0wLjAwNzg1ODM4KSI+JiN4YTsJCQkJPHRpdGxlIGlkPSJ0aXRsZTQ5MTE2Ij5TaGVldC40MDAxPC90aXRsZT4mI3hhOwkJCQk8cGF0aCBpZD0icGF0aDQ5MTE4IiBpbmtzY2FwZTpjb25uZWN0b3ItY3VydmF0dXJlPSIwIiBzdHlsZT0iZmlsbDojRkZGRkZGOyIgZD0iTTMuMyw1NS40MmMwLDAuMjEtMC4wNCwwLjQtMC4xMiwwLjYgICAgICBjLTAuMDksMC4xOS0wLjIxLDAuMzYtMC4zNiwwLjUxYy0wLjE2LDAuMTQtMC4zNSwwLjI2LTAuNTcsMC4zNWMtMC4yMywwLjA5LTAuNDksMC4xMy0wLjc4LDAuMTNjLTAuMTIsMC0wLjI1LTAuMDEtMC4zOC0wLjAyICAgICAgYy0wLjEzLTAuMDEtMC4yNi0wLjA0LTAuNC0wLjA3Yy0wLjEzLTAuMDMtMC4yNi0wLjA3LTAuMzgtMC4xMkMwLjE5LDU2Ljc0LDAuMDksNTYuNjgsMCw1Ni42bDAuMTYtMC42NiAgICAgIGMwLjA3LDAuMDQsMC4xNywwLjA4LDAuMjgsMC4xMmMwLjExLDAuMDMsMC4yMiwwLjA3LDAuMzQsMC4xYzAuMTIsMC4wNCwwLjI0LDAuMDYsMC4zNSwwLjA4YzAuMTIsMC4wMywwLjIzLDAuMDQsMC4zNCwwLjA0ICAgICAgYzAuMzEsMCwwLjU1LTAuMDgsMC43Mi0wLjIyYzAuMTYtMC4xNSwwLjI1LTAuMzcsMC4yNS0wLjY2YzAtMC4xNy0wLjA2LTAuMzItMC4xOC0wLjQ0Yy0wLjEyLTAuMTMtMC4yNy0wLjI0LTAuNDQtMC4zNCAgICAgIGMtMC4xOC0wLjEtMC4zNy0wLjItMC41OC0wLjNjLTAuMi0wLjEtMC40LTAuMjItMC41OC0wLjM2Yy0wLjE4LTAuMTMtMC4zMy0wLjI5LTAuNDQtMC40OGMtMC4xMi0wLjE4LTAuMTgtMC40MS0wLjE4LTAuNjkgICAgICBjMC0wLjI1LDAuMDQtMC40OCwwLjE0LTAuNjdjMC4wOS0wLjIsMC4yMS0wLjM2LDAuMzctMC41czAuMzQtMC4yNCwwLjU1LTAuMzFjMC4yMS0wLjA4LDAuNDMtMC4xMSwwLjY2LTAuMTEgICAgICBjMC4yNCwwLDAuNDgsMC4wMiwwLjcyLDAuMDZjMC4yNCwwLjA1LDAuNDMsMC4xMiwwLjU4LDAuMjJDMy4wMyw1MS41NCwzLDUxLjYyLDIuOTYsNTEuN2MtMC4wNSwwLjA4LTAuMDgsMC4xNS0wLjEyLDAuMjIgICAgICBjLTAuMDQsMC4wNy0wLjA3LDAuMTMtMC4wOSwwLjE3Yy0wLjAzLDAuMDUtMC4wNCwwLjA4LTAuMDUsMC4wOGMtMC4wMy0wLjAxLTAuMDYtMC4wMy0wLjEtMC4wNmMtMC4wNC0wLjAzLTAuMS0wLjA1LTAuMTctMC4wOCAgICAgIGMtMC4wNy0wLjAyLTAuMTctMC4wNC0wLjI5LTAuMDVjLTAuMTEtMC4wMS0wLjI3LTAuMDEtMC40NSwwLjAxYy0wLjEsMC4wMS0wLjIsMC4wNC0wLjI5LDAuMDhjLTAuMSwwLjA1LTAuMTgsMC4xMS0wLjI1LDAuMTkgICAgICBjLTAuMDcsMC4wNy0wLjEzLDAuMTUtMC4xNywwLjI0Yy0wLjA0LDAuMDktMC4wNiwwLjE4LTAuMDYsMC4yNmMwLDAuMiwwLjA2LDAuMzcsMC4xNywwLjVjMC4xMiwwLjEyLDAuMjcsMC4yMywwLjQ0LDAuMzMgICAgICBjMC4xOCwwLjA5LDAuMzcsMC4xOSwwLjU4LDAuMjhjMC4yLDAuMDgsMC4zOSwwLjE5LDAuNTcsMC4zMmMwLjE4LDAuMTMsMC4zMywwLjI5LDAuNDQsMC40OUMzLjI0LDU0Ljg3LDMuMyw1NS4xMiwzLjMsNTUuNDJ6Ii8+JiN4YTsJCQk8L2c+JiN4YTsJCQk8ZyBpZD0ic2hhcGU0MDAyLTI0IiB0cmFuc2Zvcm09InRyYW5zbGF0ZSg4LjkzNjUyKSI+JiN4YTsJCQkJPHRpdGxlIGlkPSJ0aXRsZTQ5MTIxIj5TaGVldC40MDAyPC90aXRsZT4mI3hhOwkJCQk8cGF0aCBpZD0icGF0aDQ5MTIzIiBpbmtzY2FwZTpjb25uZWN0b3ItY3VydmF0dXJlPSIwIiBzdHlsZT0iZmlsbDojRkZGRkZGOyIgZD0iTTQuNzQsNTQuMWMwLDAuNDgtMC4wNiwwLjktMC4xOCwxLjI3ICAgICAgYy0wLjEyLDAuMzYtMC4yOSwwLjY2LTAuNTEsMC45MWMtMC4yMSwwLjI0LTAuNDYsMC40Mi0wLjc0LDAuNTRjLTAuMjksMC4xMy0wLjYsMC4xOS0wLjk0LDAuMTlzLTAuNjUtMC4wNi0wLjk0LTAuMTkgICAgICBjLTAuMjgtMC4xMi0wLjUzLTAuMy0wLjc1LTAuNTRjLTAuMjEtMC4yNS0wLjM4LTAuNTUtMC41LTAuOTFDMC4wNiw1NSwwLDU0LjU4LDAsNTQuMWMwLTAuNDgsMC4wNi0wLjksMC4xOC0xLjI2ICAgICAgczAuMjktMC42NywwLjUtMC45MWMwLjIyLTAuMjQsMC40Ny0wLjQyLDAuNzUtMC41NWMwLjI5LTAuMTMsMC42LTAuMTksMC45NC0wLjE5czAuNjUsMC4wNiwwLjk0LDAuMTkgICAgICBjMC4yOCwwLjEzLDAuNTMsMC4zMSwwLjc0LDAuNTVjMC4yMiwwLjI0LDAuMzksMC41NSwwLjUxLDAuOTFDNC42OCw1My4yLDQuNzQsNTMuNjIsNC43NCw1NC4xeiBNMi4zNSw1Ni4yNSAgICAgIGMwLjE5LDAsMC4zNy0wLjAzLDAuNTQtMC4xMWMwLjE3LTAuMDcsMC4zMy0wLjIsMC40Ni0wLjM2YzAuMTQtMC4xNywwLjI1LTAuNCwwLjMyLTAuNjdjMC4wOC0wLjI4LDAuMTItMC42MSwwLjEzLTEuMDEgICAgICBjLTAuMDEtMC4zOS0wLjA1LTAuNzEtMC4xMi0wLjk4Yy0wLjA4LTAuMjctMC4xOC0wLjUtMC4zMS0wLjY3Yy0wLjEzLTAuMTgtMC4yOC0wLjMtMC40NS0wLjM4Yy0wLjE3LTAuMDgtMC4zNC0wLjExLTAuNTMtMC4xMSAgICAgIGMtMC4xOSwwLTAuMzcsMC4wMy0wLjU0LDAuMWMtMC4xOCwwLjA4LTAuMzMsMC4yLTAuNDcsMC4zN2MtMC4xMywwLjE3LTAuMjQsMC4zOS0wLjMyLDAuNjdjLTAuMDcsMC4yNy0wLjExLDAuNi0wLjEyLDEgICAgICBjMC4wMSwwLjM5LDAuMDUsMC43MiwwLjEyLDAuOTljMC4wOCwwLjI3LDAuMTgsMC40OSwwLjMxLDAuNjdjMC4xMywwLjE3LDAuMjgsMC4yOSwwLjQ1LDAuMzdDMS45OCw1Ni4yMSwyLjE2LDU2LjI1LDIuMzUsNTYuMjUgICAgICB6Ii8+JiN4YTsJCQk8L2c+JiN4YTsJCQk8ZyBpZD0ic2hhcGU0MDAzLTI2IiB0cmFuc2Zvcm09InRyYW5zbGF0ZSgxNC45Nzg3LC0wLjAzODM4OTIpIj4mI3hhOwkJCQk8dGl0bGUgaWQ9InRpdGxlNDkxMjYiPlNoZWV0LjQwMDM8L3RpdGxlPiYjeGE7CQkJCTxwYXRoIGlkPSJwYXRoNDkxMjgiIGlua3NjYXBlOmNvbm5lY3Rvci1jdXJ2YXR1cmU9IjAiIHN0eWxlPSJmaWxsOiNGRkZGRkY7IiBkPSJNNC4xMSw1MS4zMnY1LjY5SDMuMTdsLTIuMjMtMy45MnYzLjkySDB2LTUuNjkgICAgICBoMC45NGwyLjIzLDMuOTJ2LTMuOTJMNC4xMSw1MS4zMnoiLz4mI3hhOwkJCTwvZz4mI3hhOwkJPC9nPiYjeGE7CTwvZz4mI3hhOzwvZz4mI3hhOzwvc3ZnPg==;" vertex="1" parent="ofyRJqEsxBPMG2T8lIRP-81">
          <mxGeometry x="790" y="385" width="27" height="35" as="geometry" />
        </mxCell>
        <mxCell id="ofyRJqEsxBPMG2T8lIRP-73" style="edgeStyle=orthogonalEdgeStyle;rounded=0;orthogonalLoop=1;jettySize=auto;html=1;" edge="1" parent="ofyRJqEsxBPMG2T8lIRP-81">
          <mxGeometry relative="1" as="geometry">
            <mxPoint x="575" y="340" as="sourcePoint" />
            <mxPoint x="575" y="420" as="targetPoint" />
          </mxGeometry>
        </mxCell>
        <mxCell id="ofyRJqEsxBPMG2T8lIRP-74" value="" style="shape=image;verticalLabelPosition=bottom;labelBackgroundColor=#ffffff;verticalAlign=top;aspect=fixed;imageAspect=0;image=data:image/svg+xml,PHN2ZyB4bWxuczpjYz0iaHR0cDovL2NyZWF0aXZlY29tbW9ucy5vcmcvbnMjIiB4bWxuczpkYz0iaHR0cDovL3B1cmwub3JnL2RjL2VsZW1lbnRzLzEuMS8iIHhtbG5zOmlua3NjYXBlPSJodHRwOi8vd3d3Lmlua3NjYXBlLm9yZy9uYW1lc3BhY2VzL2lua3NjYXBlIiB4bWxuczpyZGY9Imh0dHA6Ly93d3cudzMub3JnLzE5OTkvMDIvMjItcmRmLXN5bnRheC1ucyMiIHhtbG5zOnNvZGlwb2RpPSJodHRwOi8vc29kaXBvZGkuc291cmNlZm9yZ2UubmV0L0RURC9zb2RpcG9kaS0wLmR0ZCIgeG1sbnM6c3ZnPSJodHRwOi8vd3d3LnczLm9yZy8yMDAwL3N2ZyIgeG1sbnM9Imh0dHA6Ly93d3cudzMub3JnLzIwMDAvc3ZnIiB4bWxuczp4bGluaz0iaHR0cDovL3d3dy53My5vcmcvMTk5OS94bGluayIgdmVyc2lvbj0iMS4xIiBpZD0ic3ZnMTM1MDUiIGlua3NjYXBlOnZlcnNpb249IjAuOTIuMyAoMjQwNTU0NiwgMjAxOC0wMy0xMSkiIHNvZGlwb2RpOmRvY25hbWU9InhtbF9maWxlLnN2ZyIgeD0iMHB4IiB5PSIwcHgiIHZpZXdCb3g9IjAgMCAyNi44NSAzNS4zMiIgc3R5bGU9ImVuYWJsZS1iYWNrZ3JvdW5kOm5ldyAwIDAgMjYuODUgMzUuMzI7IiB4bWw6c3BhY2U9InByZXNlcnZlIj4mI3hhOzxzb2RpcG9kaTpuYW1lZHZpZXcgYm9yZGVyY29sb3I9IiM2NjY2NjYiIGJvcmRlcm9wYWNpdHk9IjEiIGZpdC1tYXJnaW4tYm90dG9tPSIwIiBmaXQtbWFyZ2luLWxlZnQ9IjAiIGZpdC1tYXJnaW4tcmlnaHQ9IjAiIGZpdC1tYXJnaW4tdG9wPSIwIiBncmlkdG9sZXJhbmNlPSIxMCIgZ3VpZGV0b2xlcmFuY2U9IjEwIiBpZD0ibmFtZWR2aWV3MTM1MDciIGlua3NjYXBlOmN1cnJlbnQtbGF5ZXI9InN2ZzEzNTA1IiBpbmtzY2FwZTpjeD0iMjEuNTM3MTAzIiBpbmtzY2FwZTpjeT0iMjIuNTU5Nzg4IiBpbmtzY2FwZTpwYWdlb3BhY2l0eT0iMCIgaW5rc2NhcGU6cGFnZXNoYWRvdz0iMiIgaW5rc2NhcGU6d2luZG93LWhlaWdodD0iMTAxNyIgaW5rc2NhcGU6d2luZG93LW1heGltaXplZD0iMSIgaW5rc2NhcGU6d2luZG93LXdpZHRoPSIxOTIwIiBpbmtzY2FwZTp3aW5kb3cteD0iLTgiIGlua3NjYXBlOndpbmRvdy15PSItOCIgaW5rc2NhcGU6em9vbT0iMTYuMDgyOTEyIiBvYmplY3R0b2xlcmFuY2U9IjEwIiBwYWdlY29sb3I9IiNmZmZmZmYiIHNob3dncmlkPSJmYWxzZSI+JiN4YTsJPC9zb2RpcG9kaTpuYW1lZHZpZXc+JiN4YTs8ZyBpZD0iZzEzNTAzIiB0cmFuc2Zvcm09InRyYW5zbGF0ZSgtMTAuOTI4NiwtMTAuOTMxNCkiPiYjeGE7CTx0aXRsZSBpZD0idGl0bGUxMzQzNyI+UGFnZS0xPC90aXRsZT4mI3hhOwk8ZyBpZD0iZ3JvdXA0MTE5LTEiIHRyYW5zZm9ybT0idHJhbnNsYXRlKDEwLjkyODYsLTEwLjkyODYpIj4mI3hhOwkJPHRpdGxlIGlkPSJ0aXRsZTEzNDM5Ij5YTUwgRmlsZTwvdGl0bGU+JiN4YTsJCTxnIGlkPSJncm91cDQxMjAtMiI+JiN4YTsJCQk8dGl0bGUgaWQ9InRpdGxlMTM0NDEiPlNoZWV0LjQxMjA8L3RpdGxlPiYjeGE7CQkJPGcgaWQ9InNoYXBlNDEyMS0zIj4mI3hhOwkJCQk8dGl0bGUgaWQ9InRpdGxlMTM0NDMiPlNoZWV0LjQxMjE8L3RpdGxlPiYjeGE7CQkJCTxwYXRoIGlkPSJwYXRoMTM0NDUiIGlua3NjYXBlOmNvbm5lY3Rvci1jdXJ2YXR1cmU9IjAiIHN0eWxlPSJmaWxsOiNFOUU5RTA7IiBkPSJNMTkuMDMsMjEuODZIMC45MWMtMC41LDAtMC45MSwwLjQxLTAuOTEsMS4yMSAgICAgIHYzMy40OGMwLDAuMjIsMC40MSwwLjYzLDAuOTEsMC42M2gyNS4wMmMwLjUxLDAsMC45Mi0wLjQxLDAuOTItMC42M1YzMC4wNGMwLTAuNDQtMC4wNi0wLjU4LTAuMTYtMC42OGwtNy4yNy03LjM0ICAgICAgQzE5LjMyLDIxLjkyLDE5LjE4LDIxLjg2LDE5LjAzLDIxLjg2eiIvPiYjeGE7CQkJPC9nPiYjeGE7CQkJPGcgaWQ9InNoYXBlNDEyMi01IiB0cmFuc2Zvcm09InRyYW5zbGF0ZSgxOS4zNTQ3LC0yNy43NTIzKSI+JiN4YTsJCQkJPHRpdGxlIGlkPSJ0aXRsZTEzNDQ4Ij5TaGVldC40MTIyPC90aXRsZT4mI3hhOwkJCQk8cGF0aCBpZD0icGF0aDEzNDUwIiBpbmtzY2FwZTpjb25uZWN0b3ItY3VydmF0dXJlPSIwIiBzdHlsZT0iZmlsbDojRDlEN0NBOyIgZD0iTTAsNDkuN3Y3LjQ4aDcuNEwwLDQ5Ljd6Ii8+JiN4YTsJCQk8L2c+JiN4YTsJCQk8ZyBpZD0ic2hhcGU0MTIzLTciPiYjeGE7CQkJCTx0aXRsZSBpZD0idGl0bGUxMzQ1MyI+U2hlZXQuNDEyMzwvdGl0bGU+JiN4YTsJCQkJPHBhdGggaWQ9InBhdGgxMzQ1NSIgaW5rc2NhcGU6Y29ubmVjdG9yLWN1cnZhdHVyZT0iMCIgc3R5bGU9ImZpbGw6IzRCQUNDNjsiIGQ9Ik0yNS45Myw1Ny4xOEgwLjkxYy0wLjUsMC0wLjkxLTAuNDEtMC45MS0wLjkyICAgICAgdi05LjhoMjYuODV2OS44QzI2Ljg1LDU2Ljc3LDI2LjQ0LDU3LjE4LDI1LjkzLDU3LjE4eiIvPiYjeGE7CQkJPC9nPiYjeGE7CQkJPGcgaWQ9Imdyb3VwNDEyNC05IiB0cmFuc2Zvcm09InRyYW5zbGF0ZSg1LjAwMjI2LC0xLjg5MjIpIj4mI3hhOwkJCQk8dGl0bGUgaWQ9InRpdGxlMTM0NTgiPlNoZWV0LjQxMjQ8L3RpdGxlPiYjeGE7CQkJCTxnIGlkPSJzaGFwZTQxMjUtMTAiPiYjeGE7CQkJCQk8dGl0bGUgaWQ9InRpdGxlMTM0NjAiPlNoZWV0LjQxMjU8L3RpdGxlPiYjeGE7CQkJCQk8cGF0aCBpZD0icGF0aDEzNDYyIiBpbmtzY2FwZTpjb25uZWN0b3ItY3VydmF0dXJlPSIwIiBzdHlsZT0iZmlsbDojRkZGRkZGOyIgZD0iTTMuMDQsNTQuMDlsMS42LDMuMDlIMy40NWwtMS0yLjRIMi4zNiAgICAgICBsLTEuMDcsMi40SDAuMWwxLjYtMy4wOUwwLDUwLjgyaDEuMTdsMS4xMSwyLjU5aDAuMDhsMS4yMS0yLjU5aDEuMTdMMy4wNCw1NC4wOXoiLz4mI3hhOwkJCQk8L2c+JiN4YTsJCQkJPGcgaWQ9InNoYXBlNDEyNi0xMiIgdHJhbnNmb3JtPSJ0cmFuc2xhdGUoNi4xNDU0NCkiPiYjeGE7CQkJCQk8dGl0bGUgaWQ9InRpdGxlMTM0NjUiPlNoZWV0LjQxMjY8L3RpdGxlPiYjeGE7CQkJCQk8cGF0aCBpZD0icGF0aDEzNDY3IiBpbmtzY2FwZTpjb25uZWN0b3ItY3VydmF0dXJlPSIwIiBzdHlsZT0iZmlsbDojRkZGRkZGOyIgZD0iTTQuNzcsNTAuODJoMS4wNHY2LjM2SDQuNzd2LTQuMzdsLTEuNDEsMy41MyAgICAgICBoLTAuOWwtMS40Mi0zLjUzdjQuMzdIMHYtNi4zNmgxLjA0bDEuODcsNC4zNUw0Ljc3LDUwLjgyeiIvPiYjeGE7CQkJCTwvZz4mI3hhOwkJCQk8ZyBpZD0ic2hhcGU0MTI3LTE0IiB0cmFuc2Zvcm09InRyYW5zbGF0ZSgxMy41Mzc3KSI+JiN4YTsJCQkJCTx0aXRsZSBpZD0idGl0bGUxMzQ3MCI+U2hlZXQuNDEyNzwvdGl0bGU+JiN4YTsJCQkJCTxwYXRoIGlkPSJwYXRoMTM0NzIiIGlua3NjYXBlOmNvbm5lY3Rvci1jdXJ2YXR1cmU9IjAiIHN0eWxlPSJmaWxsOiNGRkZGRkY7IiBkPSJNMS4wNCw1MC44MnY1LjU3aDIuOXYwLjc5SDB2LTYuMzZIMS4wNHoiLz4mI3hhOwkJCQk8L2c+JiN4YTsJCQk8L2c+JiN4YTsJCQk8ZyBpZD0ic2hhcGU0MTI4LTE2IiB0cmFuc2Zvcm09InRyYW5zbGF0ZSg0LjkzMzU5LC0yMC4xODM1KSI+JiN4YTsJCQkJPHRpdGxlIGlkPSJ0aXRsZTEzNDc2Ij5TaGVldC40MTI4PC90aXRsZT4mI3hhOwkJCQk8cGF0aCBpZD0icGF0aDEzNDc4IiBpbmtzY2FwZTpjb25uZWN0b3ItY3VydmF0dXJlPSIwIiBzdHlsZT0iZmlsbDojNEJBQ0M2OyIgZD0iTTAuNjksNTcuMThjLTAuMTYsMC0wLjMyLTAuMDYtMC40NS0wLjE5ICAgICAgQzAsNTYuNzUsMCw1Ni4zNSwwLjI0LDU2LjFsMy43NS0zLjc4YzAuMjQtMC4yNSwwLjY0LTAuMjUsMC44OCwwYzAuMjUsMC4yNCwwLjI1LDAuNjQsMCwwLjg5bC0zLjc0LDMuNzggICAgICBDMS4wMSw1Ny4xMiwwLjg1LDU3LjE4LDAuNjksNTcuMTh6Ii8+JiN4YTsJCQk8L2c+JiN4YTsJCQk8ZyBpZD0ic2hhcGU0MTI5LTE4IiB0cmFuc2Zvcm09InRyYW5zbGF0ZSg0LjkzMzU5LC0xNi4zOTkxKSI+JiN4YTsJCQkJPHRpdGxlIGlkPSJ0aXRsZTEzNDgxIj5TaGVldC40MTI5PC90aXRsZT4mI3hhOwkJCQk8cGF0aCBpZD0icGF0aDEzNDgzIiBpbmtzY2FwZTpjb25uZWN0b3ItY3VydmF0dXJlPSIwIiBzdHlsZT0iZmlsbDojNEJBQ0M2OyIgZD0iTTQuNDMsNTcuMThjLTAuMTYsMC0wLjMyLTAuMDYtMC40NC0wLjE5ICAgICAgbC0zLjc1LTMuNzhDMCw1Mi45NiwwLDUyLjU2LDAuMjQsNTIuMzJjMC4yNS0wLjI1LDAuNjQtMC4yNSwwLjg5LDBsMy43NCwzLjc4YzAuMjUsMC4yNSwwLjI1LDAuNjUsMCwwLjg5ICAgICAgQzQuNzUsNTcuMTIsNC41OSw1Ny4xOCw0LjQzLDU3LjE4eiIvPiYjeGE7CQkJPC9nPiYjeGE7CQkJPGcgaWQ9InNoYXBlNDEzMC0yMCIgdHJhbnNmb3JtPSJ0cmFuc2xhdGUoMTYuMTcxOCwtMTYuMzk5MSkiPiYjeGE7CQkJCTx0aXRsZSBpZD0idGl0bGUxMzQ4NiI+U2hlZXQuNDEzMDwvdGl0bGU+JiN4YTsJCQkJPHBhdGggaWQ9InBhdGgxMzQ4OCIgaW5rc2NhcGU6Y29ubmVjdG9yLWN1cnZhdHVyZT0iMCIgc3R5bGU9ImZpbGw6IzRCQUNDNjsiIGQ9Ik0wLjY5LDU3LjE4Yy0wLjE2LDAtMC4zMi0wLjA2LTAuNDUtMC4xOSAgICAgIEMwLDU2Ljc1LDAsNTYuMzUsMC4yNCw1Ni4xbDMuNzUtMy43OGMwLjI0LTAuMjUsMC42NC0wLjI1LDAuODgsMGMwLjI1LDAuMjQsMC4yNSwwLjY0LDAsMC44OWwtMy43NCwzLjc4ICAgICAgQzEuMDEsNTcuMTIsMC44NSw1Ny4xOCwwLjY5LDU3LjE4eiIvPiYjeGE7CQkJPC9nPiYjeGE7CQkJPGcgaWQ9InNoYXBlNDEzMS0yMiIgdHJhbnNmb3JtPSJ0cmFuc2xhdGUoMTYuMTcxOCwtMjAuMTgzNSkiPiYjeGE7CQkJCTx0aXRsZSBpZD0idGl0bGUxMzQ5MSI+U2hlZXQuNDEzMTwvdGl0bGU+JiN4YTsJCQkJPHBhdGggaWQ9InBhdGgxMzQ5MyIgaW5rc2NhcGU6Y29ubmVjdG9yLWN1cnZhdHVyZT0iMCIgc3R5bGU9ImZpbGw6IzRCQUNDNjsiIGQ9Ik00LjQzLDU3LjE4Yy0wLjE2LDAtMC4zMi0wLjA2LTAuNDQtMC4xOSAgICAgIGwtMy43NS0zLjc4QzAsNTIuOTYsMCw1Mi41NiwwLjI0LDUyLjMyYzAuMjUtMC4yNSwwLjY0LTAuMjUsMC44OSwwbDMuNzQsMy43OGMwLjI1LDAuMjUsMC4yNSwwLjY1LDAsMC44OSAgICAgIEM0Ljc1LDU3LjEyLDQuNTksNTcuMTgsNC40Myw1Ny4xOHoiLz4mI3hhOwkJCTwvZz4mI3hhOwkJCTxnIGlkPSJzaGFwZTQxMzItMjQiIHRyYW5zZm9ybT0idHJhbnNsYXRlKDEwLjUzNDYsLTE1LjEzNzYpIj4mI3hhOwkJCQk8dGl0bGUgaWQ9InRpdGxlMTM0OTYiPlNoZWV0LjQxMzI8L3RpdGxlPiYjeGE7CQkJCTxwYXRoIGlkPSJwYXRoMTM0OTgiIGlua3NjYXBlOmNvbm5lY3Rvci1jdXJ2YXR1cmU9IjAiIHN0eWxlPSJmaWxsOiM0QkFDQzY7IiBkPSJNMC43LDU3LjE4Yy0wLjA3LDAtMC4xNC0wLjAxLTAuMi0wLjA0ICAgICAgYy0wLjMzLTAuMTEtMC41LTAuNDctMC4zOS0wLjhsMy43NS0xMC43M2MwLjEyLTAuMzIsMC40Ny0wLjUsMC44LTAuMzhjMC4zMiwwLjEyLDAuNDksMC40OCwwLjM4LDAuOEwxLjI5LDU2Ljc2ICAgICAgQzEuMiw1Ny4wMiwwLjk2LDU3LjE4LDAuNyw1Ny4xOHoiLz4mI3hhOwkJCTwvZz4mI3hhOwkJPC9nPiYjeGE7CTwvZz4mI3hhOzwvZz4mI3hhOzwvc3ZnPg==;" vertex="1" parent="ofyRJqEsxBPMG2T8lIRP-81">
          <mxGeometry x="453" y="194" width="27" height="35" as="geometry" />
        </mxCell>
        <mxCell id="ofyRJqEsxBPMG2T8lIRP-75" value="" style="shape=image;verticalLabelPosition=bottom;labelBackgroundColor=#ffffff;verticalAlign=top;aspect=fixed;imageAspect=0;image=data:image/svg+xml,PHN2ZyB4bWxuczpjYz0iaHR0cDovL2NyZWF0aXZlY29tbW9ucy5vcmcvbnMjIiB4bWxuczpkYz0iaHR0cDovL3B1cmwub3JnL2RjL2VsZW1lbnRzLzEuMS8iIHhtbG5zOmlua3NjYXBlPSJodHRwOi8vd3d3Lmlua3NjYXBlLm9yZy9uYW1lc3BhY2VzL2lua3NjYXBlIiB4bWxuczpyZGY9Imh0dHA6Ly93d3cudzMub3JnLzE5OTkvMDIvMjItcmRmLXN5bnRheC1ucyMiIHhtbG5zOnNvZGlwb2RpPSJodHRwOi8vc29kaXBvZGkuc291cmNlZm9yZ2UubmV0L0RURC9zb2RpcG9kaS0wLmR0ZCIgeG1sbnM6c3ZnPSJodHRwOi8vd3d3LnczLm9yZy8yMDAwL3N2ZyIgeG1sbnM9Imh0dHA6Ly93d3cudzMub3JnLzIwMDAvc3ZnIiB4bWxuczp4bGluaz0iaHR0cDovL3d3dy53My5vcmcvMTk5OS94bGluayIgdmVyc2lvbj0iMS4xIiBpZD0ic3ZnMTM1MDUiIGlua3NjYXBlOnZlcnNpb249IjAuOTIuMyAoMjQwNTU0NiwgMjAxOC0wMy0xMSkiIHNvZGlwb2RpOmRvY25hbWU9InhtbF9maWxlLnN2ZyIgeD0iMHB4IiB5PSIwcHgiIHZpZXdCb3g9IjAgMCAyNi44NSAzNS4zMiIgc3R5bGU9ImVuYWJsZS1iYWNrZ3JvdW5kOm5ldyAwIDAgMjYuODUgMzUuMzI7IiB4bWw6c3BhY2U9InByZXNlcnZlIj4mI3hhOzxzb2RpcG9kaTpuYW1lZHZpZXcgYm9yZGVyY29sb3I9IiM2NjY2NjYiIGJvcmRlcm9wYWNpdHk9IjEiIGZpdC1tYXJnaW4tYm90dG9tPSIwIiBmaXQtbWFyZ2luLWxlZnQ9IjAiIGZpdC1tYXJnaW4tcmlnaHQ9IjAiIGZpdC1tYXJnaW4tdG9wPSIwIiBncmlkdG9sZXJhbmNlPSIxMCIgZ3VpZGV0b2xlcmFuY2U9IjEwIiBpZD0ibmFtZWR2aWV3MTM1MDciIGlua3NjYXBlOmN1cnJlbnQtbGF5ZXI9InN2ZzEzNTA1IiBpbmtzY2FwZTpjeD0iMjEuNTM3MTAzIiBpbmtzY2FwZTpjeT0iMjIuNTU5Nzg4IiBpbmtzY2FwZTpwYWdlb3BhY2l0eT0iMCIgaW5rc2NhcGU6cGFnZXNoYWRvdz0iMiIgaW5rc2NhcGU6d2luZG93LWhlaWdodD0iMTAxNyIgaW5rc2NhcGU6d2luZG93LW1heGltaXplZD0iMSIgaW5rc2NhcGU6d2luZG93LXdpZHRoPSIxOTIwIiBpbmtzY2FwZTp3aW5kb3cteD0iLTgiIGlua3NjYXBlOndpbmRvdy15PSItOCIgaW5rc2NhcGU6em9vbT0iMTYuMDgyOTEyIiBvYmplY3R0b2xlcmFuY2U9IjEwIiBwYWdlY29sb3I9IiNmZmZmZmYiIHNob3dncmlkPSJmYWxzZSI+JiN4YTsJPC9zb2RpcG9kaTpuYW1lZHZpZXc+JiN4YTs8ZyBpZD0iZzEzNTAzIiB0cmFuc2Zvcm09InRyYW5zbGF0ZSgtMTAuOTI4NiwtMTAuOTMxNCkiPiYjeGE7CTx0aXRsZSBpZD0idGl0bGUxMzQzNyI+UGFnZS0xPC90aXRsZT4mI3hhOwk8ZyBpZD0iZ3JvdXA0MTE5LTEiIHRyYW5zZm9ybT0idHJhbnNsYXRlKDEwLjkyODYsLTEwLjkyODYpIj4mI3hhOwkJPHRpdGxlIGlkPSJ0aXRsZTEzNDM5Ij5YTUwgRmlsZTwvdGl0bGU+JiN4YTsJCTxnIGlkPSJncm91cDQxMjAtMiI+JiN4YTsJCQk8dGl0bGUgaWQ9InRpdGxlMTM0NDEiPlNoZWV0LjQxMjA8L3RpdGxlPiYjeGE7CQkJPGcgaWQ9InNoYXBlNDEyMS0zIj4mI3hhOwkJCQk8dGl0bGUgaWQ9InRpdGxlMTM0NDMiPlNoZWV0LjQxMjE8L3RpdGxlPiYjeGE7CQkJCTxwYXRoIGlkPSJwYXRoMTM0NDUiIGlua3NjYXBlOmNvbm5lY3Rvci1jdXJ2YXR1cmU9IjAiIHN0eWxlPSJmaWxsOiNFOUU5RTA7IiBkPSJNMTkuMDMsMjEuODZIMC45MWMtMC41LDAtMC45MSwwLjQxLTAuOTEsMS4yMSAgICAgIHYzMy40OGMwLDAuMjIsMC40MSwwLjYzLDAuOTEsMC42M2gyNS4wMmMwLjUxLDAsMC45Mi0wLjQxLDAuOTItMC42M1YzMC4wNGMwLTAuNDQtMC4wNi0wLjU4LTAuMTYtMC42OGwtNy4yNy03LjM0ICAgICAgQzE5LjMyLDIxLjkyLDE5LjE4LDIxLjg2LDE5LjAzLDIxLjg2eiIvPiYjeGE7CQkJPC9nPiYjeGE7CQkJPGcgaWQ9InNoYXBlNDEyMi01IiB0cmFuc2Zvcm09InRyYW5zbGF0ZSgxOS4zNTQ3LC0yNy43NTIzKSI+JiN4YTsJCQkJPHRpdGxlIGlkPSJ0aXRsZTEzNDQ4Ij5TaGVldC40MTIyPC90aXRsZT4mI3hhOwkJCQk8cGF0aCBpZD0icGF0aDEzNDUwIiBpbmtzY2FwZTpjb25uZWN0b3ItY3VydmF0dXJlPSIwIiBzdHlsZT0iZmlsbDojRDlEN0NBOyIgZD0iTTAsNDkuN3Y3LjQ4aDcuNEwwLDQ5Ljd6Ii8+JiN4YTsJCQk8L2c+JiN4YTsJCQk8ZyBpZD0ic2hhcGU0MTIzLTciPiYjeGE7CQkJCTx0aXRsZSBpZD0idGl0bGUxMzQ1MyI+U2hlZXQuNDEyMzwvdGl0bGU+JiN4YTsJCQkJPHBhdGggaWQ9InBhdGgxMzQ1NSIgaW5rc2NhcGU6Y29ubmVjdG9yLWN1cnZhdHVyZT0iMCIgc3R5bGU9ImZpbGw6IzRCQUNDNjsiIGQ9Ik0yNS45Myw1Ny4xOEgwLjkxYy0wLjUsMC0wLjkxLTAuNDEtMC45MS0wLjkyICAgICAgdi05LjhoMjYuODV2OS44QzI2Ljg1LDU2Ljc3LDI2LjQ0LDU3LjE4LDI1LjkzLDU3LjE4eiIvPiYjeGE7CQkJPC9nPiYjeGE7CQkJPGcgaWQ9Imdyb3VwNDEyNC05IiB0cmFuc2Zvcm09InRyYW5zbGF0ZSg1LjAwMjI2LC0xLjg5MjIpIj4mI3hhOwkJCQk8dGl0bGUgaWQ9InRpdGxlMTM0NTgiPlNoZWV0LjQxMjQ8L3RpdGxlPiYjeGE7CQkJCTxnIGlkPSJzaGFwZTQxMjUtMTAiPiYjeGE7CQkJCQk8dGl0bGUgaWQ9InRpdGxlMTM0NjAiPlNoZWV0LjQxMjU8L3RpdGxlPiYjeGE7CQkJCQk8cGF0aCBpZD0icGF0aDEzNDYyIiBpbmtzY2FwZTpjb25uZWN0b3ItY3VydmF0dXJlPSIwIiBzdHlsZT0iZmlsbDojRkZGRkZGOyIgZD0iTTMuMDQsNTQuMDlsMS42LDMuMDlIMy40NWwtMS0yLjRIMi4zNiAgICAgICBsLTEuMDcsMi40SDAuMWwxLjYtMy4wOUwwLDUwLjgyaDEuMTdsMS4xMSwyLjU5aDAuMDhsMS4yMS0yLjU5aDEuMTdMMy4wNCw1NC4wOXoiLz4mI3hhOwkJCQk8L2c+JiN4YTsJCQkJPGcgaWQ9InNoYXBlNDEyNi0xMiIgdHJhbnNmb3JtPSJ0cmFuc2xhdGUoNi4xNDU0NCkiPiYjeGE7CQkJCQk8dGl0bGUgaWQ9InRpdGxlMTM0NjUiPlNoZWV0LjQxMjY8L3RpdGxlPiYjeGE7CQkJCQk8cGF0aCBpZD0icGF0aDEzNDY3IiBpbmtzY2FwZTpjb25uZWN0b3ItY3VydmF0dXJlPSIwIiBzdHlsZT0iZmlsbDojRkZGRkZGOyIgZD0iTTQuNzcsNTAuODJoMS4wNHY2LjM2SDQuNzd2LTQuMzdsLTEuNDEsMy41MyAgICAgICBoLTAuOWwtMS40Mi0zLjUzdjQuMzdIMHYtNi4zNmgxLjA0bDEuODcsNC4zNUw0Ljc3LDUwLjgyeiIvPiYjeGE7CQkJCTwvZz4mI3hhOwkJCQk8ZyBpZD0ic2hhcGU0MTI3LTE0IiB0cmFuc2Zvcm09InRyYW5zbGF0ZSgxMy41Mzc3KSI+JiN4YTsJCQkJCTx0aXRsZSBpZD0idGl0bGUxMzQ3MCI+U2hlZXQuNDEyNzwvdGl0bGU+JiN4YTsJCQkJCTxwYXRoIGlkPSJwYXRoMTM0NzIiIGlua3NjYXBlOmNvbm5lY3Rvci1jdXJ2YXR1cmU9IjAiIHN0eWxlPSJmaWxsOiNGRkZGRkY7IiBkPSJNMS4wNCw1MC44MnY1LjU3aDIuOXYwLjc5SDB2LTYuMzZIMS4wNHoiLz4mI3hhOwkJCQk8L2c+JiN4YTsJCQk8L2c+JiN4YTsJCQk8ZyBpZD0ic2hhcGU0MTI4LTE2IiB0cmFuc2Zvcm09InRyYW5zbGF0ZSg0LjkzMzU5LC0yMC4xODM1KSI+JiN4YTsJCQkJPHRpdGxlIGlkPSJ0aXRsZTEzNDc2Ij5TaGVldC40MTI4PC90aXRsZT4mI3hhOwkJCQk8cGF0aCBpZD0icGF0aDEzNDc4IiBpbmtzY2FwZTpjb25uZWN0b3ItY3VydmF0dXJlPSIwIiBzdHlsZT0iZmlsbDojNEJBQ0M2OyIgZD0iTTAuNjksNTcuMThjLTAuMTYsMC0wLjMyLTAuMDYtMC40NS0wLjE5ICAgICAgQzAsNTYuNzUsMCw1Ni4zNSwwLjI0LDU2LjFsMy43NS0zLjc4YzAuMjQtMC4yNSwwLjY0LTAuMjUsMC44OCwwYzAuMjUsMC4yNCwwLjI1LDAuNjQsMCwwLjg5bC0zLjc0LDMuNzggICAgICBDMS4wMSw1Ny4xMiwwLjg1LDU3LjE4LDAuNjksNTcuMTh6Ii8+JiN4YTsJCQk8L2c+JiN4YTsJCQk8ZyBpZD0ic2hhcGU0MTI5LTE4IiB0cmFuc2Zvcm09InRyYW5zbGF0ZSg0LjkzMzU5LC0xNi4zOTkxKSI+JiN4YTsJCQkJPHRpdGxlIGlkPSJ0aXRsZTEzNDgxIj5TaGVldC40MTI5PC90aXRsZT4mI3hhOwkJCQk8cGF0aCBpZD0icGF0aDEzNDgzIiBpbmtzY2FwZTpjb25uZWN0b3ItY3VydmF0dXJlPSIwIiBzdHlsZT0iZmlsbDojNEJBQ0M2OyIgZD0iTTQuNDMsNTcuMThjLTAuMTYsMC0wLjMyLTAuMDYtMC40NC0wLjE5ICAgICAgbC0zLjc1LTMuNzhDMCw1Mi45NiwwLDUyLjU2LDAuMjQsNTIuMzJjMC4yNS0wLjI1LDAuNjQtMC4yNSwwLjg5LDBsMy43NCwzLjc4YzAuMjUsMC4yNSwwLjI1LDAuNjUsMCwwLjg5ICAgICAgQzQuNzUsNTcuMTIsNC41OSw1Ny4xOCw0LjQzLDU3LjE4eiIvPiYjeGE7CQkJPC9nPiYjeGE7CQkJPGcgaWQ9InNoYXBlNDEzMC0yMCIgdHJhbnNmb3JtPSJ0cmFuc2xhdGUoMTYuMTcxOCwtMTYuMzk5MSkiPiYjeGE7CQkJCTx0aXRsZSBpZD0idGl0bGUxMzQ4NiI+U2hlZXQuNDEzMDwvdGl0bGU+JiN4YTsJCQkJPHBhdGggaWQ9InBhdGgxMzQ4OCIgaW5rc2NhcGU6Y29ubmVjdG9yLWN1cnZhdHVyZT0iMCIgc3R5bGU9ImZpbGw6IzRCQUNDNjsiIGQ9Ik0wLjY5LDU3LjE4Yy0wLjE2LDAtMC4zMi0wLjA2LTAuNDUtMC4xOSAgICAgIEMwLDU2Ljc1LDAsNTYuMzUsMC4yNCw1Ni4xbDMuNzUtMy43OGMwLjI0LTAuMjUsMC42NC0wLjI1LDAuODgsMGMwLjI1LDAuMjQsMC4yNSwwLjY0LDAsMC44OWwtMy43NCwzLjc4ICAgICAgQzEuMDEsNTcuMTIsMC44NSw1Ny4xOCwwLjY5LDU3LjE4eiIvPiYjeGE7CQkJPC9nPiYjeGE7CQkJPGcgaWQ9InNoYXBlNDEzMS0yMiIgdHJhbnNmb3JtPSJ0cmFuc2xhdGUoMTYuMTcxOCwtMjAuMTgzNSkiPiYjeGE7CQkJCTx0aXRsZSBpZD0idGl0bGUxMzQ5MSI+U2hlZXQuNDEzMTwvdGl0bGU+JiN4YTsJCQkJPHBhdGggaWQ9InBhdGgxMzQ5MyIgaW5rc2NhcGU6Y29ubmVjdG9yLWN1cnZhdHVyZT0iMCIgc3R5bGU9ImZpbGw6IzRCQUNDNjsiIGQ9Ik00LjQzLDU3LjE4Yy0wLjE2LDAtMC4zMi0wLjA2LTAuNDQtMC4xOSAgICAgIGwtMy43NS0zLjc4QzAsNTIuOTYsMCw1Mi41NiwwLjI0LDUyLjMyYzAuMjUtMC4yNSwwLjY0LTAuMjUsMC44OSwwbDMuNzQsMy43OGMwLjI1LDAuMjUsMC4yNSwwLjY1LDAsMC44OSAgICAgIEM0Ljc1LDU3LjEyLDQuNTksNTcuMTgsNC40Myw1Ny4xOHoiLz4mI3hhOwkJCTwvZz4mI3hhOwkJCTxnIGlkPSJzaGFwZTQxMzItMjQiIHRyYW5zZm9ybT0idHJhbnNsYXRlKDEwLjUzNDYsLTE1LjEzNzYpIj4mI3hhOwkJCQk8dGl0bGUgaWQ9InRpdGxlMTM0OTYiPlNoZWV0LjQxMzI8L3RpdGxlPiYjeGE7CQkJCTxwYXRoIGlkPSJwYXRoMTM0OTgiIGlua3NjYXBlOmNvbm5lY3Rvci1jdXJ2YXR1cmU9IjAiIHN0eWxlPSJmaWxsOiM0QkFDQzY7IiBkPSJNMC43LDU3LjE4Yy0wLjA3LDAtMC4xNC0wLjAxLTAuMi0wLjA0ICAgICAgYy0wLjMzLTAuMTEtMC41LTAuNDctMC4zOS0wLjhsMy43NS0xMC43M2MwLjEyLTAuMzIsMC40Ny0wLjUsMC44LTAuMzhjMC4zMiwwLjEyLDAuNDksMC40OCwwLjM4LDAuOEwxLjI5LDU2Ljc2ICAgICAgQzEuMiw1Ny4wMiwwLjk2LDU3LjE4LDAuNyw1Ny4xOHoiLz4mI3hhOwkJCTwvZz4mI3hhOwkJPC9nPiYjeGE7CTwvZz4mI3hhOzwvZz4mI3hhOzwvc3ZnPg==;" vertex="1" parent="ofyRJqEsxBPMG2T8lIRP-81">
          <mxGeometry x="843" y="180" width="27" height="35" as="geometry" />
        </mxCell>
        <mxCell id="ofyRJqEsxBPMG2T8lIRP-79" value="QuickSight&lt;div&gt;Reporting&lt;/div&gt;" style="outlineConnect=0;dashed=0;verticalLabelPosition=bottom;verticalAlign=top;align=center;html=1;shape=mxgraph.aws3.quicksight;fillColor=#00B7F4;gradientColor=none;" vertex="1" parent="ofyRJqEsxBPMG2T8lIRP-81">
          <mxGeometry x="1013" y="120" width="51" height="50" as="geometry" />
        </mxCell>
        <mxCell id="ofyRJqEsxBPMG2T8lIRP-80" value="" style="verticalLabelPosition=bottom;html=1;verticalAlign=top;align=center;strokeColor=none;fillColor=#00BEF2;shape=mxgraph.azure.automation;pointerEvents=1;" vertex="1" parent="ofyRJqEsxBPMG2T8lIRP-81">
          <mxGeometry x="685" y="379.5" width="58" height="46" as="geometry" />
        </mxCell>
        <mxCell id="ofyRJqEsxBPMG2T8lIRP-82" value="&lt;font style=&quot;font-size: 18px;&quot;&gt;&lt;b&gt;Resilient &amp;amp; Scalable&amp;nbsp;&lt;span style=&quot;background-color: transparent; color: light-dark(rgb(0, 0, 0), rgb(255, 255, 255));&quot;&gt;Solution Architecture -&amp;nbsp;&lt;/span&gt;&lt;/b&gt;&lt;b&gt;TX 103 Submissions&lt;/b&gt;&lt;/font&gt;" style="text;html=1;align=center;verticalAlign=middle;resizable=0;points=[];autosize=1;strokeColor=none;fillColor=none;" vertex="1" parent="1">
          <mxGeometry x="310" y="10" width="570" height="40" as="geometry" />
        </mxCell>
      </root>
    </mxGraphModel>
  </diagram>
</mxfile>
